<svg id="svg" version="1.1" width="500" height="694" xmlns="http://www.w3.org/2000/svg" xmlns:xlink="http://www.w3.org/1999/xlink" style="display: block;"><g id="svgg"><path id="path0" d="M167.240 18.198 C 160.806 18.457,158.400 19.218,158.400 20.996 C 158.400 21.436,158.962 21.330,159.648 20.760 C 161.571 19.164,230.494 19.219,232.421 20.817 C 233.633 21.823,233.751 21.774,233.484 20.375 C 233.048 18.090,198.297 16.948,167.240 18.198 M142.034 23.945 C 141.234 25.239,142.649 25.336,148.000 24.352 L 153.200 23.395 147.847 23.298 C 144.903 23.244,142.287 23.535,142.034 23.945 M240.000 23.809 C 240.000 24.144,241.170 24.447,242.600 24.481 C 244.030 24.516,246.453 24.829,247.984 25.176 C 250.500 25.747,250.664 25.682,249.686 24.504 C 248.572 23.161,240.000 22.546,240.000 23.809 M130.000 28.000 C 129.433 28.917,129.870 29.029,133.200 28.817 C 137.049 28.573,137.564 27.200,133.807 27.200 C 131.985 27.200,130.272 27.560,130.000 28.000 M255.545 27.912 C 256.298 29.129,261.600 29.416,261.600 28.239 C 261.600 27.558,260.483 27.200,258.353 27.200 C 256.567 27.200,255.303 27.520,255.545 27.912 M124.210 30.978 C 122.735 31.161,121.100 32.044,120.410 33.028 C 118.720 35.441,118.894 36.598,120.644 34.580 C 121.528 33.560,123.287 32.815,125.182 32.658 C 126.884 32.516,128.424 31.950,128.605 31.400 C 128.786 30.850,128.453 30.458,127.867 30.528 C 127.280 30.598,125.635 30.801,124.210 30.978 M268.400 32.388 C 270.867 33.475,272.380 33.263,271.566 31.945 C 271.313 31.535,269.957 31.229,268.553 31.265 L 266.000 31.330 268.400 32.388 M111.541 37.935 C 110.571 39.140,108.955 39.970,107.254 40.135 C 105.752 40.281,104.382 40.831,104.209 41.358 C 103.640 43.093,109.864 41.500,111.638 39.457 C 112.539 38.419,114.118 37.408,115.146 37.210 C 117.980 36.665,118.165 36.000,115.482 36.000 C 113.923 36.000,112.559 36.669,111.541 37.935 M278.047 37.175 C 280.056 38.694,280.866 38.703,280.289 37.200 C 280.036 36.540,279.079 36.000,278.162 36.000 C 276.524 36.000,276.522 36.021,278.047 37.175 M285.750 40.850 C 285.943 41.428,286.572 42.058,287.150 42.250 C 287.750 42.450,288.050 42.150,287.850 41.550 C 287.657 40.973,287.028 40.343,286.450 40.150 C 285.850 39.950,285.550 40.250,285.750 40.850 M100.059 43.902 C 97.157 44.713,96.839 46.614,99.722 45.924 C 102.593 45.237,103.200 44.893,103.200 43.953 C 103.200 43.119,102.880 43.114,100.059 43.902 M289.359 44.525 C 289.586 45.116,290.561 45.600,291.526 45.600 C 292.491 45.600,293.712 46.032,294.240 46.560 C 294.865 47.185,295.200 47.220,295.200 46.658 C 295.200 45.419,293.528 44.274,291.073 43.832 C 289.520 43.553,289.057 43.740,289.359 44.525 M298.846 49.935 C 300.521 51.160,301.281 51.025,300.433 49.653 C 300.143 49.184,299.318 48.800,298.600 48.800 C 297.508 48.800,297.548 48.986,298.846 49.935 M84.823 54.739 C 84.410 55.827,83.305 56.792,82.306 56.939 C 81.327 57.082,80.372 57.666,80.184 58.235 C 79.613 59.968,83.991 58.423,86.533 55.993 C 89.224 53.421,89.350 52.800,87.180 52.800 C 86.202 52.800,85.268 53.568,84.823 54.739 M302.400 53.507 C 302.400 54.200,306.529 55.325,307.080 54.783 C 307.234 54.631,307.123 54.122,306.833 53.653 C 306.199 52.628,302.400 52.502,302.400 53.507 M66.696 70.784 C 66.020 72.544,66.762 73.091,67.925 71.691 C 68.579 70.902,68.613 70.379,68.033 70.021 C 67.569 69.733,66.967 70.077,66.696 70.784 M182.800 77.236 C 179.280 77.810,174.289 78.307,171.708 78.340 C 168.383 78.382,165.937 78.965,163.308 80.341 C 161.269 81.408,157.915 82.506,155.856 82.781 C 153.797 83.056,151.272 83.943,150.244 84.751 C 149.216 85.560,147.036 86.591,145.400 87.043 C 143.764 87.494,141.471 88.615,140.305 89.532 C 139.138 90.449,137.569 91.200,136.816 91.200 C 136.064 91.200,134.769 91.950,133.940 92.866 C 133.111 93.782,131.207 95.044,129.709 95.670 C 124.889 97.684,108.605 112.359,101.029 121.516 C 99.803 122.998,97.990 125.153,97.001 126.305 C 96.012 127.457,95.202 128.694,95.201 129.053 C 95.200 129.413,94.300 130.887,93.200 132.329 C 92.100 133.771,91.200 135.243,91.200 135.600 C 91.200 135.957,90.300 137.429,89.200 138.871 C 88.100 140.313,87.200 141.884,87.200 142.362 C 87.200 142.839,86.120 145.254,84.800 147.728 C 83.480 150.201,82.400 153.094,82.400 154.155 C 82.400 155.216,81.500 157.409,80.400 159.028 C 78.928 161.195,78.398 163.031,78.392 165.986 C 78.387 168.571,77.675 171.524,76.392 174.279 C 73.307 180.907,73.307 215.893,76.392 222.521 C 77.645 225.212,78.387 228.239,78.392 230.677 C 78.397 233.291,78.933 235.302,80.038 236.853 C 80.938 238.118,82.215 241.233,82.875 243.776 C 83.536 246.319,84.407 248.516,84.813 248.658 C 85.218 248.800,85.788 250.240,86.080 251.858 C 86.714 255.373,87.595 257.195,89.661 259.261 C 90.507 260.107,91.200 261.378,91.200 262.085 C 91.200 263.326,92.344 264.948,97.821 271.472 C 104.264 279.147,106.400 281.205,106.400 279.739 C 106.400 278.103,107.718 276.569,109.800 275.780 C 111.359 275.190,111.878 267.713,110.421 266.813 C 109.993 266.549,109.063 264.997,108.354 263.366 C 107.645 261.735,106.736 259.775,106.333 259.011 C 105.930 258.247,105.600 256.413,105.600 254.935 C 105.600 253.264,104.995 251.700,104.000 250.800 C 101.817 248.825,101.991 248.005,104.600 247.975 C 106.827 247.949,109.600 246.383,109.600 245.152 C 109.600 244.782,109.168 244.912,108.640 245.440 C 108.112 245.968,105.710 246.400,103.303 246.400 C 100.431 246.400,98.444 246.836,97.525 247.668 C 95.378 249.611,90.179 250.062,88.818 248.422 C 87.573 246.921,88.715 245.636,91.317 245.612 C 92.042 245.606,93.741 244.340,95.093 242.800 C 97.346 240.234,97.921 240.000,101.976 240.000 C 104.409 240.000,106.400 239.666,106.400 239.257 C 106.400 237.693,109.020 235.999,111.457 235.988 C 112.856 235.981,114.540 235.627,115.200 235.200 C 116.059 234.645,115.213 234.421,112.218 234.412 C 108.634 234.402,107.850 234.686,106.726 236.400 C 104.794 239.350,98.400 239.386,98.400 236.447 C 98.400 235.373,98.040 234.272,97.600 234.000 C 96.489 233.313,96.595 227.725,97.741 226.579 C 98.463 225.857,98.323 225.240,97.141 223.933 C 95.937 222.602,95.600 221.036,95.600 216.781 C 95.600 213.785,95.330 211.064,95.000 210.734 C 93.282 209.014,95.229 186.978,97.302 184.688 C 98.360 183.518,98.463 182.943,97.741 182.221 C 95.695 180.175,97.868 172.000,100.459 172.000 C 101.250 172.000,101.600 171.054,101.600 168.919 C 101.600 165.514,102.891 161.052,104.412 159.200 C 104.954 158.540,105.823 156.673,106.344 155.052 C 106.864 153.430,107.574 151.990,107.921 151.852 C 108.268 151.713,109.061 150.520,109.683 149.200 C 110.321 147.847,111.554 146.694,112.508 146.557 C 113.822 146.369,114.298 145.593,114.633 143.091 C 115.067 139.859,130.771 122.400,133.245 122.400 C 133.744 122.400,134.822 121.660,135.641 120.755 C 136.660 119.629,137.709 119.255,138.965 119.570 C 140.387 119.927,140.800 119.695,140.800 118.539 C 140.800 116.794,143.194 114.400,144.939 114.400 C 145.606 114.400,146.785 113.700,147.559 112.845 C 148.333 111.990,149.916 111.180,151.076 111.045 C 152.451 110.885,153.282 110.243,153.461 109.200 C 153.855 106.901,155.889 105.600,159.090 105.600 C 160.621 105.600,162.442 105.111,163.137 104.513 C 164.864 103.027,169.332 101.600,172.256 101.600 C 173.586 101.600,175.358 100.981,176.195 100.224 C 178.865 97.807,195.473 96.247,204.000 97.612 C 207.300 98.140,210.900 98.670,212.000 98.790 C 214.154 99.025,216.464 99.732,218.432 100.760 C 219.110 101.114,222.227 101.661,225.358 101.976 C 230.010 102.443,231.125 102.827,231.451 104.074 C 231.674 104.924,232.548 105.600,233.427 105.600 C 236.209 105.600,240.583 107.885,241.024 109.568 C 241.361 110.858,242.103 111.200,244.563 111.200 C 247.927 111.200,253.600 115.835,253.600 118.583 C 253.600 119.641,254.151 119.810,256.400 119.445 C 259.011 119.021,259.200 119.134,259.200 121.115 C 259.200 122.645,259.760 123.452,261.200 124.000 C 262.763 124.594,263.200 125.325,263.200 127.340 C 263.200 129.347,263.413 129.707,264.160 128.960 C 265.643 127.477,266.271 127.803,266.547 130.200 C 266.749 131.952,267.266 132.453,269.091 132.662 C 270.575 132.832,271.530 133.487,271.800 134.523 C 272.030 135.403,273.070 136.446,274.109 136.842 C 275.522 137.379,276.000 138.173,276.000 139.980 C 276.000 142.352,277.161 143.316,277.781 141.458 C 278.348 139.756,280.000 141.645,280.000 143.997 C 280.000 146.009,280.327 146.330,282.600 146.549 C 285.712 146.849,286.569 149.603,284.323 152.085 C 282.414 154.195,283.996 156.087,286.409 154.580 C 288.623 153.197,288.800 153.303,288.800 156.020 C 288.800 157.865,289.275 158.620,290.800 159.200 C 291.900 159.618,292.800 160.513,292.800 161.189 C 292.800 162.187,293.820 162.389,298.253 162.270 C 301.252 162.190,304.141 162.392,304.672 162.721 C 306.211 163.672,310.517 161.423,309.880 160.001 C 309.583 159.340,309.174 157.360,308.969 155.600 C 308.764 153.840,307.953 151.580,307.166 150.578 C 306.379 149.576,305.115 146.786,304.358 144.378 C 303.601 141.970,302.670 140.000,302.290 140.000 C 301.911 140.000,301.600 139.545,301.600 138.989 C 301.600 138.433,300.340 136.108,298.800 133.821 C 297.260 131.534,296.000 129.344,296.000 128.954 C 296.000 128.564,295.370 127.502,294.600 126.594 C 293.830 125.687,291.940 123.387,290.400 121.485 C 282.500 111.725,268.336 98.650,262.350 95.590 C 260.342 94.564,258.228 93.157,257.652 92.462 C 257.076 91.768,256.074 91.200,255.426 91.200 C 254.777 91.200,253.191 90.448,251.901 89.529 C 250.610 88.610,248.220 87.490,246.590 87.040 C 244.959 86.590,242.784 85.560,241.756 84.751 C 240.728 83.943,238.212 83.030,236.165 82.723 C 234.117 82.416,230.849 81.318,228.902 80.282 C 226.415 78.960,224.029 78.396,220.881 78.386 C 218.416 78.378,213.160 77.840,209.200 77.189 C 200.655 75.785,191.592 75.801,182.800 77.236 M333.311 77.200 C 333.057 77.860,332.244 78.400,331.503 78.400 C 330.410 78.400,330.508 78.706,332.020 80.017 C 333.299 81.127,334.059 81.351,334.442 80.732 C 334.843 80.083,335.181 80.121,335.642 80.867 C 336.005 81.456,335.915 82.028,335.434 82.189 C 333.598 82.801,336.269 86.361,338.200 85.877 C 339.595 85.528,339.986 85.761,339.937 86.913 C 339.901 87.755,339.699 87.966,339.470 87.400 C 338.982 86.190,337.600 86.067,337.600 87.234 C 337.600 88.107,337.728 88.283,341.645 92.800 C 342.981 94.340,344.960 97.220,346.044 99.200 C 349.169 104.908,350.927 107.904,351.790 108.991 C 352.231 109.546,353.017 111.321,353.537 112.936 C 354.057 114.551,355.001 116.303,355.635 116.829 C 356.270 117.356,357.188 119.271,357.677 121.086 C 358.166 122.901,359.203 125.289,359.983 126.393 C 360.763 127.497,361.668 129.660,361.994 131.200 C 362.321 132.740,363.328 135.440,364.232 137.200 C 365.467 139.603,366.014 142.692,366.427 149.600 C 366.819 156.142,367.404 159.609,368.452 161.600 C 371.747 167.857,371.881 224.479,368.616 230.800 C 367.934 232.120,366.962 235.900,366.456 239.200 C 365.950 242.500,364.650 247.421,363.568 250.136 C 362.486 252.851,361.589 255.911,361.575 256.936 C 361.561 257.961,360.663 260.240,359.579 262.000 C 358.495 263.760,357.606 265.849,357.604 266.642 C 357.602 267.436,356.700 269.409,355.600 271.028 C 354.500 272.647,353.598 274.518,353.597 275.186 C 353.595 275.854,352.516 278.020,351.200 280.000 C 349.884 281.980,348.805 284.088,348.803 284.685 C 348.802 285.281,347.990 286.776,347.000 288.007 C 346.010 289.238,344.120 292.115,342.800 294.400 C 341.480 296.685,339.663 299.510,338.761 300.678 C 337.860 301.845,335.581 305.390,333.696 308.556 C 331.811 311.722,329.759 314.736,329.135 315.254 C 328.511 315.772,328.000 316.654,328.000 317.213 C 328.000 317.773,326.020 321.155,323.600 324.729 C 321.180 328.304,319.200 331.554,319.200 331.953 C 319.200 332.351,318.372 333.695,317.360 334.939 C 316.348 336.182,313.918 339.865,311.960 343.123 C 310.002 346.381,307.500 350.543,306.400 352.372 C 303.515 357.170,298.409 365.209,295.400 369.690 C 293.970 371.819,292.800 373.743,292.800 373.965 C 292.800 374.591,287.017 383.546,286.303 384.026 C 285.955 384.260,285.202 385.520,284.631 386.826 C 284.061 388.132,281.972 391.720,279.989 394.800 C 275.232 402.192,274.601 403.189,272.977 405.892 C 270.717 409.652,263.204 421.542,258.653 428.558 C 256.314 432.165,254.400 435.346,254.400 435.627 C 254.400 435.908,253.370 437.637,252.111 439.469 C 250.851 441.301,248.701 444.600,247.332 446.800 C 245.962 449.000,244.452 451.257,243.974 451.816 C 243.497 452.375,242.176 454.625,241.040 456.816 C 239.903 459.007,238.664 460.800,238.286 460.800 C 237.909 460.800,237.600 461.216,237.600 461.724 C 237.600 462.233,236.700 463.829,235.600 465.271 C 234.500 466.713,233.600 468.132,233.600 468.423 C 233.600 468.715,231.620 471.960,229.200 475.635 C 226.780 479.309,224.800 482.546,224.800 482.827 C 224.800 483.108,223.775 484.837,222.522 486.669 C 216.745 495.118,211.200 503.844,211.199 504.490 C 211.198 504.880,210.388 506.185,209.399 507.389 C 208.410 508.593,206.557 511.293,205.282 513.389 C 198.311 524.851,196.449 526.762,193.983 524.988 C 192.797 524.135,185.193 514.216,184.640 512.800 C 184.383 512.140,182.366 509.198,180.159 506.262 C 177.953 503.326,175.895 500.128,175.586 499.155 C 175.277 498.183,173.444 495.309,171.512 492.769 C 169.581 490.229,167.997 487.667,167.992 487.075 C 167.988 486.484,166.728 484.419,165.192 482.487 C 163.657 480.555,162.400 478.679,162.400 478.318 C 162.400 477.957,160.510 474.829,158.200 471.367 C 155.890 467.905,153.280 463.854,152.400 462.364 C 151.520 460.875,150.168 458.743,149.395 457.628 C 148.622 456.513,147.276 454.118,146.404 452.306 C 145.532 450.494,144.276 448.561,143.613 448.011 C 142.950 447.460,140.977 444.419,139.228 441.251 C 137.480 438.084,135.318 434.831,134.425 434.022 C 133.531 433.214,132.800 431.855,132.800 431.003 C 132.800 430.151,131.540 427.982,130.000 426.183 C 128.460 424.384,127.200 422.437,127.200 421.856 C 127.200 421.275,126.884 420.800,126.497 420.800 C 126.110 420.800,125.333 419.630,124.769 418.200 C 124.206 416.770,122.927 414.700,121.927 413.600 C 120.927 412.500,118.979 409.440,117.597 406.800 C 116.216 404.160,114.426 401.280,113.620 400.400 C 112.813 399.520,111.629 397.526,110.988 395.968 C 110.347 394.411,109.322 392.611,108.710 391.968 C 106.939 390.109,103.200 384.121,103.200 383.144 C 103.200 382.655,101.940 380.782,100.400 378.983 C 98.860 377.184,97.600 375.057,97.600 374.256 C 97.600 373.455,97.306 372.800,96.947 372.800 C 96.588 372.800,95.512 371.407,94.555 369.704 C 93.598 368.001,92.294 366.176,91.659 365.649 C 91.023 365.121,90.282 363.683,90.012 362.453 C 89.741 361.223,88.821 359.466,87.966 358.548 C 86.089 356.533,83.738 352.750,81.602 348.306 C 80.731 346.494,79.419 344.514,78.685 343.906 C 77.952 343.298,76.848 341.720,76.232 340.400 C 74.714 337.146,71.824 332.425,70.268 330.654 C 69.565 329.854,68.726 328.300,68.405 327.200 C 68.083 326.100,67.014 324.300,66.030 323.200 C 65.045 322.100,63.042 319.040,61.580 316.400 C 60.117 313.760,58.083 310.582,57.060 309.339 C 56.037 308.095,55.200 306.549,55.200 305.904 C 55.200 305.258,54.300 303.760,53.200 302.573 C 52.100 301.387,51.200 300.128,51.200 299.775 C 51.200 299.422,50.438 298.338,49.506 297.367 C 48.574 296.395,47.294 294.393,46.661 292.918 C 46.028 291.444,44.866 289.545,44.079 288.700 C 43.291 287.855,41.070 284.111,39.144 280.382 C 37.217 276.652,35.427 273.600,35.165 273.600 C 34.903 273.600,34.199 271.800,33.600 269.600 C 33.001 267.400,32.293 265.600,32.028 265.600 C 30.893 265.600,28.800 260.722,28.800 258.077 C 28.800 256.494,28.440 255.200,28.000 255.200 C 27.560 255.200,27.200 256.460,27.200 258.000 C 27.200 259.956,26.838 260.800,26.000 260.800 C 25.140 260.800,24.800 259.922,24.800 257.698 C 24.800 252.465,19.271 251.369,18.395 256.429 C 18.072 258.292,17.484 258.874,15.593 259.201 L 13.200 259.616 13.200 267.608 L 13.200 275.600 15.800 275.851 C 18.228 276.085,18.400 276.300,18.400 279.111 C 18.400 281.287,18.954 282.642,20.400 284.000 C 22.125 285.620,22.400 286.576,22.400 290.939 C 22.400 295.998,22.401 296.000,24.736 296.000 C 27.209 296.000,29.436 300.721,27.300 301.433 C 25.102 302.166,26.338 305.600,28.800 305.600 C 30.260 305.600,31.200 306.015,31.200 306.661 C 31.200 307.244,32.100 308.567,33.200 309.600 C 34.662 310.973,35.200 312.308,35.200 314.559 C 35.200 317.109,35.545 317.771,37.200 318.400 C 38.300 318.818,39.200 319.709,39.200 320.380 C 39.200 321.051,39.677 321.600,40.261 321.600 C 43.177 321.600,45.742 326.594,43.476 327.861 C 41.394 329.027,42.760 331.200,45.575 331.200 C 47.981 331.200,48.000 331.234,48.000 335.600 C 48.000 339.683,48.809 341.127,50.008 339.187 C 50.863 337.803,52.000 339.178,52.000 341.597 C 52.000 343.609,52.327 343.930,54.600 344.149 C 57.163 344.396,59.312 349.600,56.851 349.600 C 56.383 349.600,56.000 350.500,56.000 351.600 C 56.000 353.693,57.446 354.234,58.970 352.710 C 60.209 351.471,61.600 352.536,61.600 354.723 C 61.600 356.619,63.827 359.200,65.463 359.200 C 66.682 359.200,66.661 361.204,65.420 363.191 C 64.647 364.429,64.647 364.967,65.420 365.740 C 66.171 366.491,66.400 366.496,66.400 365.760 C 66.400 365.232,67.300 364.800,68.400 364.800 C 70.501 364.800,71.439 368.863,69.600 370.000 C 67.686 371.183,68.797 373.498,71.400 373.749 C 73.393 373.941,74.060 374.420,74.256 375.800 C 74.420 376.957,75.063 377.600,76.056 377.600 C 77.394 377.600,77.600 378.186,77.600 382.000 C 77.600 386.364,77.620 386.400,80.020 386.400 C 81.792 386.400,82.624 386.882,83.128 388.200 C 83.507 389.190,84.578 390.686,85.508 391.524 C 86.647 392.549,87.200 394.009,87.200 395.985 C 87.200 398.082,87.771 399.458,89.200 400.800 C 90.646 402.158,91.200 403.513,91.200 405.689 C 91.200 408.500,91.372 408.715,93.800 408.949 C 95.751 409.137,96.461 409.629,96.645 410.916 C 96.779 411.861,97.589 413.266,98.445 414.040 C 99.462 414.961,100.000 416.493,100.000 418.468 C 100.000 420.973,100.301 421.532,101.767 421.744 C 102.862 421.903,103.706 422.732,103.985 423.924 C 104.428 425.814,105.417 426.657,108.200 427.517 C 109.237 427.838,109.600 428.805,109.600 431.250 C 109.600 433.877,109.926 434.635,111.200 434.968 C 112.515 435.312,112.800 436.059,112.800 439.160 C 112.800 443.390,113.348 444.405,114.927 443.095 C 115.777 442.389,116.106 442.729,116.505 444.723 C 116.899 446.695,117.324 447.142,118.460 446.781 C 120.528 446.125,123.002 449.910,121.605 451.594 C 120.387 453.061,121.208 456.800,122.749 456.800 C 123.364 456.800,124.008 456.376,124.181 455.858 C 124.743 454.171,126.400 456.035,126.400 458.354 C 126.400 459.941,126.876 460.738,128.000 461.032 C 129.271 461.364,129.600 462.123,129.600 464.725 C 129.600 467.375,129.882 468.000,131.076 468.000 C 133.909 468.000,136.511 472.696,134.400 474.000 C 132.482 475.185,133.572 477.600,136.025 477.600 C 137.613 477.600,138.621 478.083,138.944 479.000 C 139.216 479.770,140.080 481.120,140.863 482.000 C 141.647 482.880,142.403 485.040,142.544 486.800 C 142.771 489.637,143.054 490.029,145.042 490.257 C 146.459 490.420,147.528 491.155,147.950 492.257 C 148.316 493.216,149.378 494.686,150.308 495.524 C 151.447 496.549,152.000 498.009,152.000 499.985 C 152.000 502.082,152.571 503.458,154.000 504.800 C 155.457 506.169,156.000 507.509,156.000 509.739 C 156.000 512.267,156.279 512.800,157.600 512.800 C 158.649 512.800,159.200 513.333,159.200 514.349 C 159.200 515.513,159.848 515.961,161.800 516.149 C 164.579 516.417,165.976 519.944,164.063 521.857 C 162.599 523.321,163.048 525.600,164.800 525.600 C 165.680 525.600,166.400 525.240,166.400 524.800 C 166.400 523.086,167.856 524.117,168.376 526.200 C 169.015 528.764,171.008 531.200,172.465 531.200 C 173.999 531.200,174.278 533.810,172.918 535.419 C 172.070 536.421,171.968 537.088,172.569 537.689 C 173.170 538.290,173.577 538.284,173.957 537.670 C 174.974 536.024,176.000 536.805,176.000 539.225 C 176.000 542.096,178.178 543.398,179.382 541.247 C 180.090 539.981,180.424 540.097,182.851 542.449 L 185.536 545.052 198.368 545.228 L 211.200 545.405 211.200 543.477 C 211.200 541.210,213.122 540.208,214.800 541.600 C 216.388 542.918,218.400 542.032,218.400 540.014 C 218.400 538.528,218.991 537.028,220.926 533.600 C 221.299 532.940,221.954 531.590,222.382 530.600 C 222.810 529.610,223.670 528.800,224.293 528.800 C 224.917 528.800,225.670 527.810,225.969 526.600 C 226.267 525.390,227.531 523.320,228.779 522.000 C 230.027 520.680,231.176 518.880,231.332 518.000 C 231.498 517.067,232.364 516.293,233.408 516.144 C 234.889 515.933,235.200 515.383,235.200 512.978 C 235.200 510.763,235.847 509.390,237.905 507.234 C 239.392 505.675,241.221 502.510,241.969 500.200 C 242.717 497.890,243.784 496.000,244.340 496.000 C 246.042 496.000,247.835 493.367,248.426 490.000 C 249.123 486.030,253.777 480.787,256.071 481.387 C 257.948 481.878,258.175 479.561,256.437 477.641 C 254.912 475.955,256.481 472.509,258.936 472.155 C 259.870 472.021,261.266 471.211,262.040 470.355 C 262.815 469.500,264.146 468.800,264.999 468.800 C 266.397 468.800,266.497 468.412,266.008 464.860 C 265.474 460.978,265.500 460.915,267.733 460.660 C 269.691 460.435,270.029 460.018,270.216 457.600 C 270.586 452.801,271.128 451.405,272.791 450.970 C 273.676 450.739,274.400 450.018,274.400 449.368 C 274.400 448.718,275.120 447.998,276.000 447.768 C 277.021 447.501,277.604 446.671,277.611 445.475 C 277.629 442.304,278.530 440.000,279.750 440.000 C 281.541 440.000,283.200 437.934,283.200 435.704 C 283.200 433.528,284.380 432.274,285.192 433.587 C 286.260 435.315,287.200 434.268,287.200 431.351 C 287.200 429.498,287.776 427.683,288.670 426.724 C 289.478 425.856,290.402 424.103,290.722 422.827 C 291.042 421.551,292.181 419.466,293.252 418.192 C 294.323 416.919,295.200 415.545,295.200 415.139 C 295.200 414.732,295.684 414.400,296.276 414.400 C 298.153 414.400,300.000 411.572,300.000 408.699 C 300.000 405.641,304.820 400.000,307.434 400.000 C 308.915 400.000,309.433 396.350,308.020 395.867 C 306.736 395.427,308.078 392.000,309.533 392.000 C 311.268 392.000,312.800 390.456,312.800 388.709 C 312.800 384.863,317.758 377.529,320.108 377.899 C 322.692 378.306,323.232 376.511,321.406 373.586 C 320.126 371.537,321.531 369.123,323.854 369.380 C 325.072 369.515,325.613 368.962,326.004 367.180 C 326.495 364.947,328.000 363.791,328.000 365.647 C 328.000 366.113,328.360 366.272,328.800 366.000 C 329.240 365.728,329.600 364.116,329.600 362.418 C 329.600 357.913,330.251 356.800,332.886 356.800 C 335.037 356.800,335.200 356.583,335.200 353.724 C 335.200 351.693,335.729 350.170,336.755 349.240 C 337.611 348.466,338.421 347.061,338.555 346.116 C 338.708 345.043,339.474 344.304,340.600 344.144 C 342.104 343.931,342.400 343.392,342.400 340.868 C 342.400 338.807,342.937 337.364,344.092 336.324 C 345.022 335.486,346.093 333.990,346.472 333.000 C 346.851 332.010,347.709 331.200,348.380 331.200 C 349.183 331.200,349.600 330.434,349.600 328.957 C 349.600 327.456,350.500 325.841,352.321 324.076 C 354.282 322.176,355.190 320.455,355.570 317.919 C 355.985 315.152,356.429 314.400,357.649 314.400 C 358.508 314.400,359.200 313.854,359.200 313.175 C 359.200 312.501,359.830 311.726,360.600 311.453 C 363.502 310.424,364.800 308.571,364.800 305.456 C 364.800 302.890,365.142 302.230,366.800 301.600 C 368.462 300.968,368.800 300.312,368.800 297.713 C 368.800 295.302,369.152 294.495,370.337 294.185 C 371.455 293.892,372.025 292.782,372.425 290.111 C 372.831 287.407,373.583 285.961,375.281 284.620 C 377.103 283.181,377.599 282.130,377.649 279.600 C 377.727 275.644,378.679 272.910,379.509 274.253 C 380.717 276.207,381.600 275.082,381.600 271.589 C 381.600 269.603,381.930 267.353,382.333 266.589 C 384.696 262.108,385.600 258.849,385.600 254.804 C 385.600 250.923,385.836 250.188,387.200 249.832 C 388.080 249.602,388.800 248.757,388.800 247.954 C 388.800 247.151,389.179 246.260,389.641 245.974 C 390.186 245.638,390.290 243.502,389.936 239.908 C 389.397 234.438,390.621 225.292,392.113 223.640 C 393.069 222.583,392.977 215.404,392.000 214.800 C 391.521 214.504,391.200 209.207,391.200 201.600 C 391.200 193.993,391.521 188.696,392.000 188.400 C 392.976 187.797,393.069 182.661,392.114 182.071 C 391.142 181.469,390.116 173.518,390.041 166.000 C 389.975 159.346,389.501 157.489,387.182 154.800 C 386.350 153.836,385.640 151.289,385.394 148.390 C 385.163 145.660,384.254 142.277,383.293 140.566 C 382.300 138.797,381.600 136.131,381.600 134.115 C 381.600 131.484,381.131 130.239,379.600 128.800 C 378.143 127.431,377.600 126.091,377.600 123.861 C 377.600 120.699,376.999 120.121,375.386 121.734 C 374.317 122.803,374.027 122.221,373.226 117.400 C 372.952 115.750,371.844 113.517,370.764 112.437 C 369.463 111.136,368.800 109.571,368.800 107.803 C 368.800 105.187,363.279 98.400,361.152 98.400 C 359.947 98.400,357.686 93.541,357.429 90.400 C 357.236 88.044,356.867 87.561,355.098 87.356 C 353.943 87.222,352.170 86.232,351.159 85.156 C 350.148 84.080,348.720 83.200,347.985 83.200 C 346.256 83.200,344.000 80.696,344.000 78.777 C 344.000 77.613,343.787 77.493,343.040 78.240 C 341.620 79.660,339.637 79.408,338.000 77.600 C 336.289 75.709,333.959 75.510,333.311 77.200 M55.755 82.960 C 54.294 83.339,52.800 86.200,52.800 88.619 C 52.800 89.523,53.674 89.007,55.600 86.965 C 57.140 85.332,58.400 83.637,58.400 83.198 C 58.400 82.366,58.139 82.342,55.755 82.960 M46.502 95.920 C 45.899 96.302,45.569 97.106,45.768 97.705 C 46.022 98.465,46.424 98.250,47.094 96.998 C 48.158 95.010,48.101 94.907,46.502 95.920 M44.252 100.600 C 43.978 101.370,43.610 102.266,43.435 102.591 C 43.260 102.916,43.676 102.967,44.358 102.705 C 45.041 102.443,45.600 101.547,45.600 100.714 C 45.600 98.816,44.907 98.757,44.252 100.600 M40.000 106.364 C 40.000 107.224,39.100 108.827,38.000 109.927 C 36.633 111.294,36.000 112.808,36.000 114.710 C 36.000 116.657,35.580 117.626,34.599 117.937 C 33.008 118.442,30.832 122.758,31.568 123.949 C 31.836 124.381,31.606 125.453,31.057 126.331 C 29.994 128.034,30.532 129.307,31.947 128.433 C 32.416 128.143,32.800 126.637,32.800 125.086 C 32.800 122.958,33.438 121.645,35.400 119.733 C 37.066 118.110,37.912 116.583,37.755 115.481 C 37.612 114.479,38.316 112.957,39.442 111.830 C 41.651 109.621,42.762 104.800,41.061 104.800 C 40.478 104.800,40.000 105.504,40.000 106.364 M27.800 130.860 C 27.470 131.194,27.200 133.245,27.200 135.418 C 27.200 138.680,26.851 139.644,25.200 140.943 C 23.081 142.610,22.070 152.800,24.023 152.800 C 24.476 152.800,24.776 151.450,24.689 149.800 C 24.427 144.803,24.715 143.675,26.840 141.384 C 28.777 139.294,29.725 128.915,27.800 130.860 M19.539 158.781 C 18.077 161.011,18.000 162.960,18.000 197.565 C 18.000 234.464,18.209 237.819,20.393 236.006 C 21.244 235.300,21.351 234.630,20.783 233.569 C 19.630 231.414,19.732 160.588,20.890 159.430 C 21.380 158.941,21.622 158.066,21.429 157.486 C 21.204 156.813,20.522 157.280,19.539 158.781 M299.733 166.133 C 298.738 167.128,299.178 168.214,300.224 167.346 C 300.788 166.878,303.218 166.361,305.624 166.196 L 310.000 165.896 305.133 165.748 C 302.457 165.667,300.027 165.840,299.733 166.133 M286.933 170.133 C 286.640 170.427,286.400 171.327,286.400 172.133 C 286.400 173.379,285.732 173.600,281.972 173.600 C 277.406 173.600,273.600 175.252,273.600 177.233 C 273.600 177.810,272.970 178.447,272.200 178.649 C 271.050 178.949,271.029 179.031,272.083 179.107 C 272.789 179.158,274.337 178.300,275.524 177.200 C 277.269 175.583,278.505 175.200,281.974 175.200 C 285.635 175.200,286.482 174.904,287.733 173.191 C 288.708 171.856,290.408 170.946,292.800 170.479 L 296.400 169.775 291.933 169.688 C 289.477 169.639,287.227 169.840,286.933 170.133 M308.000 173.600 C 307.116 174.171,307.642 174.375,310.000 174.375 C 312.358 174.375,312.884 174.171,312.000 173.600 C 311.340 173.173,310.440 172.825,310.000 172.825 C 309.560 172.825,308.660 173.173,308.000 173.600 M262.400 180.800 C 261.706 182.097,260.725 182.400,257.219 182.400 C 254.841 182.400,252.672 182.760,252.400 183.200 C 251.054 185.378,259.979 183.996,262.587 181.623 C 264.024 180.316,264.763 179.236,264.228 179.223 C 263.694 179.211,262.871 179.920,262.400 180.800 M290.029 180.754 C 289.772 181.168,287.861 181.754,285.781 182.056 C 281.823 182.630,279.158 183.689,278.280 185.038 C 277.797 185.779,276.864 185.938,271.032 186.275 C 268.953 186.395,264.394 190.260,265.283 191.150 C 265.517 191.384,266.315 190.816,267.055 189.886 C 268.054 188.631,269.634 188.078,273.200 187.736 C 276.696 187.401,278.361 186.831,279.328 185.638 C 280.304 184.435,281.595 184.000,284.189 184.000 C 286.922 184.000,288.146 183.548,289.600 182.000 C 290.633 180.900,291.257 180.000,290.987 180.000 C 290.716 180.000,290.285 180.339,290.029 180.754 M316.000 200.533 C 316.000 210.067,316.254 217.613,316.564 217.302 C 317.326 216.541,317.360 183.200,316.600 183.200 C 316.270 183.200,316.000 191.000,316.000 200.533 M239.360 187.360 C 237.869 188.851,238.229 189.748,239.947 188.828 C 240.798 188.373,242.868 187.994,244.547 187.988 C 246.226 187.981,248.140 187.627,248.800 187.200 C 249.648 186.652,248.580 186.421,245.160 186.412 C 242.446 186.405,239.898 186.822,239.360 187.360 M226.586 193.600 C 225.817 194.831,224.713 195.203,221.793 195.211 C 216.465 195.226,214.400 195.920,214.400 197.693 C 214.400 198.979,213.780 199.200,210.178 199.200 C 205.996 199.200,203.115 200.452,201.065 203.162 C 199.568 205.141,200.613 205.209,202.210 203.236 C 203.353 201.825,204.756 201.355,208.830 201.020 C 211.982 200.761,214.250 200.167,214.640 199.498 C 215.792 197.521,219.667 196.046,222.500 196.506 C 224.972 196.908,229.600 194.256,229.600 192.438 C 229.600 191.345,227.485 192.160,226.586 193.600 M251.600 194.400 C 250.720 194.778,248.830 195.113,247.400 195.144 C 243.596 195.226,244.216 196.800,248.053 196.800 C 251.467 196.800,254.400 195.678,254.400 194.372 C 254.400 193.461,253.771 193.467,251.600 194.400 M241.747 197.822 C 241.263 198.406,239.347 198.973,237.489 199.083 C 232.200 199.395,230.780 200.746,235.711 200.776 C 239.649 200.799,244.396 198.538,243.114 197.250 C 242.847 196.981,242.232 197.239,241.747 197.822 M218.430 205.968 C 217.417 207.047,216.365 207.903,216.094 207.870 C 212.434 207.430,206.400 208.178,206.400 209.072 C 206.400 210.638,202.847 212.000,198.762 212.000 C 196.803 212.000,195.200 212.324,195.200 212.721 C 195.200 214.281,189.438 216.800,185.869 216.800 C 182.941 216.800,181.923 217.190,180.657 218.800 C 179.362 220.447,178.352 220.814,174.942 220.882 C 170.935 220.961,170.891 220.986,173.600 221.651 C 177.890 222.705,181.522 221.789,182.094 219.510 C 182.506 217.870,183.056 217.600,185.987 217.600 C 191.408 217.600,194.572 216.715,195.000 215.079 C 195.321 213.853,196.188 213.600,200.075 213.600 C 204.193 213.600,204.923 213.357,206.074 211.600 C 207.171 209.926,208.010 209.600,211.231 209.600 C 214.219 209.600,215.671 209.118,217.739 207.440 C 219.202 206.252,220.550 205.172,220.733 205.040 C 220.917 204.908,220.888 204.621,220.670 204.403 C 220.452 204.185,219.444 204.889,218.430 205.968 M190.933 205.333 C 189.919 206.348,190.402 207.394,191.474 206.505 C 192.064 206.015,192.748 205.815,192.993 206.060 C 193.239 206.306,193.677 206.122,193.967 205.653 C 194.539 204.728,191.825 204.442,190.933 205.333 M179.733 209.333 C 178.636 210.431,179.264 210.966,181.212 210.594 C 182.318 210.382,183.420 209.892,183.659 209.504 C 184.162 208.691,180.534 208.533,179.733 209.333 M171.253 212.730 C 167.387 213.148,166.844 213.437,166.338 215.342 C 165.728 217.639,167.442 217.808,168.313 215.538 C 168.570 214.868,169.849 214.400,171.422 214.400 C 172.892 214.400,174.793 213.871,175.647 213.225 C 176.501 212.579,176.840 212.098,176.400 212.156 C 175.960 212.214,173.644 212.472,171.253 212.730 M153.972 219.531 C 152.810 221.303,152.038 221.600,148.584 221.600 C 145.542 221.600,143.923 222.079,141.993 223.551 C 140.288 224.851,138.148 225.586,135.580 225.751 C 133.460 225.888,131.606 226.360,131.461 226.800 C 130.874 228.581,140.308 227.145,142.445 225.129 C 143.976 223.683,145.572 223.134,148.801 222.941 C 152.950 222.694,157.393 219.526,155.810 217.944 C 155.545 217.678,154.718 218.392,153.972 219.531 M311.747 223.967 C 310.096 226.762,309.749 237.771,311.362 236.158 C 311.891 235.629,312.473 232.767,312.654 229.798 C 312.835 226.829,313.320 223.982,313.731 223.471 C 314.142 222.959,314.167 222.350,313.786 222.115 C 313.405 221.879,312.488 222.713,311.747 223.967 M164.908 224.593 C 161.563 224.824,160.091 225.382,158.230 227.121 C 156.321 228.905,155.016 229.379,151.721 229.489 C 148.436 229.598,147.323 230.000,146.234 231.474 C 145.116 232.988,144.028 233.356,140.234 233.504 C 137.685 233.603,135.161 234.116,134.625 234.642 C 132.261 236.965,143.567 235.218,146.367 232.828 C 148.369 231.119,150.066 230.493,153.454 230.212 C 156.873 229.929,158.175 229.442,159.052 228.121 C 159.955 226.761,160.993 226.400,164.000 226.400 C 166.405 226.400,168.170 225.959,168.800 225.200 C 169.348 224.540,169.662 224.067,169.498 224.148 C 169.334 224.229,167.269 224.430,164.908 224.593 M129.318 229.348 C 129.017 229.650,127.247 230.145,125.385 230.448 L 122.000 231.000 124.847 231.100 C 127.031 231.177,132.427 228.940,130.333 228.825 C 130.077 228.811,129.620 229.047,129.318 229.348 M119.223 231.169 C 118.576 231.578,118.242 232.109,118.482 232.348 C 118.721 232.588,119.611 232.259,120.458 231.617 C 122.145 230.341,121.120 229.969,119.223 231.169 M131.608 236.787 C 131.332 237.234,128.987 237.600,126.398 237.600 C 122.095 237.600,121.577 237.792,120.373 239.831 C 119.273 241.692,118.619 242.011,116.422 241.754 C 114.972 241.585,113.533 241.861,113.220 242.368 C 112.811 243.029,113.857 243.220,116.925 243.044 C 120.464 242.842,121.336 242.490,121.990 241.000 C 122.674 239.439,123.380 239.200,127.292 239.200 C 131.646 239.200,134.818 237.647,132.894 236.458 C 132.463 236.192,131.884 236.340,131.608 236.787 M308.800 238.183 C 306.964 238.882,306.426 240.106,306.412 243.608 C 306.403 245.940,305.963 247.088,304.800 247.814 C 303.701 248.500,303.200 249.680,303.200 251.579 C 303.200 253.538,302.727 254.597,301.578 255.212 C 300.685 255.690,300.181 256.446,300.458 256.893 C 300.734 257.341,300.295 258.193,299.481 258.788 C 298.668 259.383,298.270 260.136,298.596 260.463 C 299.736 261.603,304.800 255.427,304.800 252.898 C 304.800 251.310,305.467 249.992,306.800 248.943 C 308.448 247.647,308.800 246.679,308.800 243.445 C 308.800 241.286,309.232 239.088,309.760 238.560 C 310.793 237.527,310.660 237.475,308.800 238.183 M23.200 245.040 C 23.200 248.516,23.589 251.269,24.160 251.840 C 25.533 253.213,26.787 253.030,25.622 251.626 C 25.069 250.960,24.632 248.020,24.612 244.826 C 24.593 241.732,24.267 239.200,23.889 239.200 C 23.510 239.200,23.200 241.828,23.200 245.040 M294.867 265.315 C 294.105 267.301,294.945 267.572,295.963 265.669 C 296.455 264.750,296.522 264.000,296.114 264.000 C 295.705 264.000,295.144 264.592,294.867 265.315 " stroke="none" fill="#ffffff" fill-rule="evenodd"></path><path id="path1" d="M168.409 19.831 C 159.501 20.089,156.805 21.162,163.340 21.848 C 166.506 22.180,218.916 22.026,231.560 21.647 C 232.665 21.614,232.871 21.351,232.266 20.746 C 231.439 19.919,187.264 19.286,168.409 19.831 M148.230 24.298 C 140.846 25.638,140.380 26.919,147.415 26.536 C 152.913 26.237,155.200 25.464,155.200 23.902 C 155.200 23.081,154.806 23.104,148.230 24.298 M236.800 24.314 C 236.800 25.892,238.610 26.400,244.225 26.400 C 250.065 26.400,249.616 24.787,243.710 24.549 C 241.671 24.467,240.002 24.130,240.001 23.800 C 240.000 23.470,239.280 23.200,238.400 23.200 C 237.520 23.200,236.800 23.701,236.800 24.314 M136.400 28.000 C 136.128 28.440,134.885 28.800,133.637 28.800 C 132.260 28.800,130.627 29.581,129.484 30.786 C 128.210 32.129,126.724 32.777,124.894 32.786 C 123.269 32.794,121.671 33.393,120.894 34.286 C 119.698 35.658,117.225 36.819,114.470 37.299 C 113.848 37.408,112.573 38.389,111.636 39.479 C 110.699 40.569,108.896 41.583,107.628 41.731 C 106.360 41.879,105.168 42.474,104.977 43.053 C 104.380 44.872,110.478 43.890,111.519 42.000 C 112.771 39.727,113.663 39.226,116.488 39.212 C 118.199 39.204,119.445 38.575,120.478 37.200 C 121.492 35.849,122.762 35.196,124.390 35.188 C 127.261 35.173,128.245 34.599,129.508 32.200 C 130.235 30.820,131.159 30.400,133.468 30.400 C 136.290 30.400,138.400 29.305,138.400 27.840 C 138.400 26.932,136.990 27.045,136.400 28.000 M253.600 27.840 C 253.600 28.192,254.032 28.912,254.560 29.440 C 255.728 30.608,261.915 30.757,261.200 29.600 C 260.928 29.160,259.668 28.800,258.400 28.800 C 257.132 28.800,255.872 28.440,255.600 28.000 C 255.010 27.045,253.600 26.932,253.600 27.840 M265.600 31.674 C 265.600 32.769,268.055 34.400,269.703 34.400 C 270.722 34.400,271.186 34.116,270.760 33.752 C 269.630 32.789,265.600 31.166,265.600 31.674 M275.946 37.500 C 276.417 38.380,277.615 39.000,278.842 39.000 L 280.934 39.000 278.667 37.505 C 275.783 35.604,274.931 35.602,275.946 37.500 M284.000 40.668 C 284.000 41.035,284.990 42.243,286.200 43.352 C 287.410 44.461,288.761 45.989,289.202 46.749 C 289.800 47.778,290.562 47.990,292.196 47.580 C 294.631 46.968,294.417 45.600,291.886 45.600 C 290.995 45.600,289.043 44.340,287.547 42.800 C 284.776 39.946,284.000 39.480,284.000 40.668 M102.864 44.697 C 102.627 45.080,101.346 45.611,100.017 45.877 C 97.209 46.438,96.751 48.006,99.400 47.988 C 101.606 47.973,102.756 47.235,103.433 45.400 C 103.972 43.940,103.609 43.491,102.864 44.697 M296.800 49.115 C 296.800 49.319,297.366 50.051,298.057 50.743 C 299.441 52.126,301.185 52.469,300.403 51.204 C 299.849 50.309,296.800 48.540,296.800 49.115 M92.000 50.400 C 92.000 50.840,92.540 51.200,93.200 51.200 C 93.860 51.200,94.400 50.840,94.400 50.400 C 94.400 49.960,93.860 49.600,93.200 49.600 C 92.540 49.600,92.000 49.960,92.000 50.400 M86.800 55.600 C 85.480 57.078,83.708 58.402,82.863 58.543 C 80.629 58.916,80.290 60.800,82.457 60.800 C 84.206 60.800,90.400 55.159,90.400 53.566 C 90.400 52.205,89.254 52.853,86.800 55.600 M300.800 53.211 C 300.800 54.845,302.855 56.491,304.501 56.177 C 306.676 55.761,306.256 54.400,303.953 54.400 C 303.099 54.400,302.400 54.040,302.400 53.600 C 302.400 53.160,302.040 52.800,301.600 52.800 C 301.160 52.800,300.800 52.985,300.800 53.211 M318.553 67.148 C 319.085 68.000,319.826 68.508,320.199 68.277 C 320.962 67.806,319.393 65.600,318.295 65.600 C 317.905 65.600,318.022 66.297,318.553 67.148 M188.000 73.567 C 185.140 73.894,181.360 74.543,179.600 75.010 C 177.840 75.477,173.880 76.107,170.800 76.410 C 167.720 76.712,163.141 77.824,160.624 78.880 C 158.107 79.936,155.413 80.800,154.636 80.800 C 153.859 80.800,151.418 81.685,149.211 82.766 C 147.005 83.847,143.940 85.300,142.400 85.995 C 133.721 89.911,125.879 95.036,116.069 103.200 C 105.888 111.674,91.065 129.217,89.289 134.894 C 88.998 135.826,88.048 137.232,87.180 138.018 C 86.311 138.805,85.599 139.842,85.597 140.324 C 85.595 140.806,84.517 143.360,83.200 146.000 C 81.883 148.640,80.805 151.343,80.803 152.006 C 80.801 152.670,79.934 154.839,78.876 156.827 C 77.818 158.815,76.711 162.232,76.417 164.421 C 76.123 166.609,75.099 170.380,74.141 172.800 C 71.475 179.536,71.521 218.361,74.201 224.203 C 75.161 226.295,76.187 229.895,76.483 232.203 C 76.778 234.511,77.843 237.840,78.850 239.600 C 79.857 241.360,80.942 244.240,81.261 246.000 C 81.580 247.760,82.287 249.920,82.832 250.800 C 83.376 251.680,84.278 253.840,84.837 255.600 C 85.395 257.360,86.410 259.210,87.092 259.711 C 87.774 260.211,88.707 261.708,89.166 263.036 C 89.916 265.206,94.302 270.743,100.113 276.855 C 101.275 278.077,102.369 279.506,102.543 280.030 C 102.718 280.554,103.495 280.852,104.269 280.691 C 105.463 280.444,105.276 279.955,103.039 277.472 C 100.156 274.273,96.376 269.812,93.221 265.885 C 92.109 264.501,91.200 262.791,91.200 262.085 C 91.200 261.378,90.507 260.107,89.661 259.261 C 87.595 257.195,86.714 255.373,86.080 251.858 C 85.788 250.240,85.218 248.800,84.813 248.658 C 84.407 248.516,83.536 246.319,82.875 243.776 C 82.215 241.233,80.938 238.118,80.038 236.853 C 78.933 235.302,78.397 233.291,78.392 230.677 C 78.387 228.239,77.645 225.212,76.392 222.521 C 73.307 215.893,73.307 180.907,76.392 174.279 C 77.675 171.524,78.387 168.571,78.392 165.986 C 78.398 163.031,78.928 161.195,80.400 159.028 C 81.500 157.409,82.400 155.216,82.400 154.155 C 82.400 153.094,83.480 150.201,84.800 147.728 C 86.120 145.254,87.200 142.839,87.200 142.362 C 87.200 141.884,88.100 140.313,89.200 138.871 C 90.300 137.429,91.200 135.957,91.200 135.600 C 91.200 135.243,92.100 133.771,93.200 132.329 C 94.300 130.887,95.200 129.413,95.201 129.053 C 95.202 128.694,96.012 127.457,97.001 126.305 C 97.990 125.153,99.803 122.998,101.029 121.516 C 108.605 112.359,124.889 97.684,129.709 95.670 C 131.207 95.044,133.111 93.782,133.940 92.866 C 134.769 91.950,136.064 91.200,136.816 91.200 C 137.569 91.200,139.138 90.449,140.305 89.532 C 141.471 88.615,143.764 87.494,145.400 87.043 C 147.036 86.591,149.216 85.560,150.244 84.751 C 151.272 83.943,153.797 83.056,155.856 82.781 C 157.915 82.506,161.269 81.408,163.308 80.341 C 165.873 78.998,168.340 78.396,171.308 78.386 C 173.669 78.378,179.020 77.844,183.200 77.200 C 192.893 75.706,200.156 75.703,209.200 77.189 C 213.160 77.840,218.416 78.378,220.881 78.386 C 224.029 78.396,226.415 78.960,228.902 80.282 C 230.849 81.318,234.117 82.416,236.165 82.723 C 238.212 83.030,240.728 83.943,241.756 84.751 C 242.784 85.560,244.959 86.590,246.590 87.040 C 248.220 87.490,250.610 88.610,251.901 89.529 C 253.191 90.448,254.777 91.200,255.426 91.200 C 256.074 91.200,257.076 91.768,257.652 92.462 C 258.228 93.157,260.342 94.564,262.350 95.590 C 268.336 98.650,282.500 111.725,290.400 121.485 C 291.940 123.387,293.830 125.687,294.600 126.594 C 295.370 127.502,296.000 128.564,296.000 128.954 C 296.000 129.344,297.260 131.534,298.800 133.821 C 300.340 136.108,301.600 138.433,301.600 138.989 C 301.600 139.545,301.911 140.000,302.290 140.000 C 302.670 140.000,303.601 141.970,304.358 144.378 C 305.115 146.786,306.425 149.633,307.268 150.704 C 308.110 151.776,308.805 153.676,308.812 154.926 C 308.830 158.243,310.945 163.928,311.569 162.338 C 311.842 161.644,311.691 160.090,311.233 158.886 C 310.775 157.681,310.400 155.347,310.400 153.699 C 310.400 151.938,309.812 150.062,308.975 149.151 C 308.191 148.298,307.075 145.998,306.495 144.040 C 305.914 142.081,304.576 139.208,303.520 137.654 C 302.464 136.100,301.600 134.428,301.600 133.938 C 301.600 133.449,300.880 132.396,300.000 131.600 C 299.120 130.804,298.400 129.702,298.400 129.152 C 298.400 126.625,280.890 107.154,273.263 101.200 C 271.572 99.880,269.066 97.860,267.694 96.711 C 266.322 95.562,263.995 93.942,262.523 93.111 C 261.051 92.280,258.171 90.626,256.123 89.436 C 254.075 88.245,251.140 86.700,249.600 86.001 C 248.060 85.303,244.995 83.847,242.789 82.766 C 240.582 81.685,238.141 80.800,237.364 80.800 C 236.587 80.800,233.893 79.940,231.376 78.889 C 228.859 77.838,224.460 76.728,221.600 76.423 C 218.740 76.118,214.240 75.396,211.600 74.819 C 205.157 73.412,194.370 72.839,188.000 73.567 M331.289 81.000 C 331.808 81.990,332.681 83.065,333.227 83.390 C 333.774 83.714,334.466 84.953,334.764 86.143 C 335.063 87.333,337.083 90.357,339.254 92.862 C 341.424 95.367,343.200 97.928,343.200 98.553 C 343.200 99.178,344.110 100.923,345.223 102.431 C 346.335 103.938,348.564 107.878,350.175 111.186 C 351.787 114.494,353.757 118.059,354.553 119.108 C 355.349 120.157,356.004 121.777,356.010 122.708 C 356.015 123.639,356.881 125.908,357.935 127.751 C 358.989 129.594,360.105 132.294,360.416 133.751 C 360.727 135.208,361.720 138.020,362.624 140.000 C 363.844 142.673,364.318 145.557,364.465 151.200 C 364.598 156.298,365.278 160.907,366.531 165.200 C 369.346 174.840,369.394 217.860,366.600 227.251 C 365.610 230.579,364.800 234.444,364.800 235.839 C 364.800 237.235,363.720 241.627,362.400 245.600 C 361.080 249.573,360.000 253.282,360.000 253.843 C 360.000 254.403,359.267 256.288,358.372 258.031 C 357.476 259.774,356.356 262.719,355.883 264.576 C 355.410 266.433,354.525 268.364,353.917 268.869 C 353.309 269.374,352.415 271.274,351.931 273.093 C 351.447 274.912,350.603 276.940,350.055 277.600 C 349.508 278.260,347.508 281.680,345.611 285.200 C 343.714 288.720,341.477 292.500,340.640 293.600 C 338.112 296.924,330.400 308.970,330.400 309.596 C 330.400 309.917,329.410 311.478,328.200 313.065 C 326.990 314.652,324.959 317.672,323.687 319.775 C 322.415 321.879,320.565 324.860,319.577 326.400 C 318.588 327.940,317.289 330.137,316.690 331.281 C 316.090 332.426,314.160 335.615,312.400 338.369 C 310.640 341.122,308.160 345.046,306.889 347.088 C 305.619 349.129,303.549 352.299,302.289 354.131 C 301.030 355.963,300.000 357.729,300.000 358.055 C 300.000 358.382,299.100 359.829,298.000 361.271 C 296.900 362.713,296.000 364.128,296.000 364.416 C 296.000 364.703,294.978 366.437,293.729 368.269 C 292.480 370.101,290.581 373.040,289.509 374.800 C 288.437 376.560,287.109 378.720,286.557 379.600 C 286.006 380.480,284.934 382.226,284.177 383.479 C 282.850 385.676,280.237 389.885,276.280 396.200 C 275.246 397.850,273.442 400.730,272.271 402.600 C 271.100 404.470,269.168 407.440,267.978 409.200 C 266.789 410.960,265.577 413.163,265.287 414.094 C 264.997 415.026,264.048 416.432,263.180 417.218 C 262.311 418.005,261.600 419.083,261.600 419.614 C 261.600 420.145,260.610 421.878,259.400 423.465 C 258.190 425.052,256.159 428.072,254.887 430.175 C 253.615 432.279,251.787 435.260,250.826 436.800 C 249.864 438.340,248.183 441.040,247.089 442.800 C 245.996 444.560,243.714 448.160,242.018 450.800 C 240.322 453.440,238.175 456.860,237.247 458.400 C 234.237 463.396,234.020 463.745,232.472 466.088 C 230.404 469.217,227.891 473.229,225.113 477.836 C 223.841 479.946,220.910 484.584,218.600 488.142 C 216.290 491.700,214.400 494.875,214.400 495.196 C 214.400 495.517,213.410 497.065,212.200 498.637 C 210.990 500.208,208.920 503.341,207.600 505.600 C 206.280 507.859,204.210 510.992,203.000 512.563 C 201.790 514.135,200.800 515.698,200.800 516.038 C 200.800 517.236,196.505 523.200,195.658 523.178 C 195.186 523.166,193.900 521.881,192.800 520.323 C 191.700 518.765,190.041 516.525,189.113 515.345 C 188.184 514.165,186.871 512.119,186.194 510.798 C 185.518 509.477,184.207 507.711,183.282 506.874 C 182.357 506.037,181.600 505.024,181.600 504.623 C 181.600 504.221,180.700 502.713,179.600 501.271 C 178.500 499.829,177.600 498.245,177.600 497.752 C 177.600 497.259,176.573 495.673,175.318 494.228 C 174.062 492.783,172.892 491.240,172.717 490.800 C 171.853 488.626,166.979 480.812,165.960 479.967 C 165.322 479.437,164.800 478.645,164.800 478.206 C 164.800 477.245,161.242 471.455,158.200 467.465 C 156.990 465.878,156.000 464.117,156.000 463.551 C 156.000 462.986,155.035 461.376,153.857 459.975 C 152.678 458.574,151.148 456.418,150.457 455.183 C 149.765 453.948,148.383 451.466,147.384 449.669 C 146.385 447.871,145.258 446.400,144.881 446.400 C 144.503 446.400,143.723 445.230,143.146 443.800 C 142.570 442.370,141.266 440.086,140.249 438.724 C 139.232 437.363,138.400 435.975,138.400 435.640 C 138.400 435.305,137.500 433.961,136.400 432.654 C 135.300 431.347,134.400 429.792,134.400 429.200 C 134.400 428.608,133.431 426.972,132.248 425.565 C 129.930 422.811,127.835 419.436,126.051 415.584 C 125.436 414.255,124.182 412.489,123.266 411.660 C 122.350 410.831,121.600 409.730,121.600 409.213 C 121.600 408.171,117.501 401.647,114.643 398.139 C 113.629 396.895,112.800 395.298,112.800 394.590 C 112.800 393.882,112.053 392.508,111.141 391.537 C 110.228 390.566,108.878 388.683,108.141 387.354 C 107.403 386.025,105.975 383.452,104.967 381.635 C 103.959 379.819,102.429 377.629,101.567 376.767 C 100.705 375.905,100.000 374.688,100.000 374.061 C 100.000 373.435,99.100 371.853,98.000 370.546 C 96.900 369.239,96.000 367.815,96.000 367.382 C 96.000 366.950,95.411 366.107,94.691 365.509 C 93.971 364.912,92.698 362.828,91.862 360.879 C 91.027 358.930,89.819 356.945,89.178 356.467 C 88.537 355.990,87.355 354.340,86.551 352.800 C 83.444 346.850,81.382 343.576,80.374 342.995 C 79.797 342.663,79.098 341.356,78.820 340.092 C 78.543 338.828,77.254 336.605,75.958 335.153 C 74.661 333.700,73.600 332.092,73.600 331.580 C 73.600 331.067,72.880 329.996,72.000 329.200 C 71.120 328.404,70.400 327.085,70.400 326.269 C 70.400 325.453,69.320 323.655,68.000 322.274 C 66.680 320.893,65.593 319.366,65.585 318.881 C 65.571 317.984,62.134 312.421,59.358 308.800 C 58.515 307.700,57.554 305.900,57.223 304.800 C 56.891 303.700,55.843 301.900,54.894 300.800 C 52.511 298.039,50.103 294.493,48.481 291.357 C 47.730 289.904,46.414 288.014,45.557 287.157 C 44.701 286.301,44.000 284.924,44.000 284.098 C 44.000 283.272,43.445 282.135,42.767 281.572 C 42.089 281.010,39.532 276.464,37.086 271.472 C 34.640 266.479,32.315 262.195,31.919 261.950 C 31.524 261.706,31.200 260.293,31.200 258.810 C 31.200 257.327,30.634 255.549,29.943 254.857 C 28.516 253.431,27.200 253.211,27.200 254.400 C 27.200 254.840,27.560 255.200,28.000 255.200 C 28.440 255.200,28.800 256.494,28.800 258.077 C 28.800 260.722,30.893 265.600,32.028 265.600 C 32.293 265.600,33.001 267.400,33.600 269.600 C 34.199 271.800,34.903 273.600,35.165 273.600 C 35.427 273.600,37.217 276.652,39.144 280.382 C 41.070 284.111,43.291 287.855,44.079 288.700 C 44.866 289.545,46.028 291.444,46.661 292.918 C 47.294 294.393,48.574 296.395,49.506 297.367 C 50.438 298.338,51.200 299.422,51.200 299.775 C 51.200 300.128,52.100 301.387,53.200 302.573 C 54.300 303.760,55.200 305.258,55.200 305.904 C 55.200 306.549,56.037 308.095,57.060 309.339 C 58.083 310.582,60.117 313.760,61.580 316.400 C 63.042 319.040,65.045 322.100,66.030 323.200 C 67.014 324.300,68.083 326.100,68.405 327.200 C 68.726 328.300,69.565 329.854,70.268 330.654 C 71.824 332.425,74.714 337.146,76.232 340.400 C 76.848 341.720,77.952 343.298,78.685 343.906 C 79.419 344.514,80.731 346.494,81.602 348.306 C 83.738 352.750,86.089 356.533,87.966 358.548 C 88.821 359.466,89.741 361.223,90.012 362.453 C 90.282 363.683,91.023 365.121,91.659 365.649 C 92.294 366.176,93.598 368.001,94.555 369.704 C 95.512 371.407,96.588 372.800,96.947 372.800 C 97.306 372.800,97.600 373.455,97.600 374.256 C 97.600 375.057,98.860 377.184,100.400 378.983 C 101.940 380.782,103.200 382.655,103.200 383.144 C 103.200 384.121,106.939 390.109,108.710 391.968 C 109.322 392.611,110.347 394.411,110.988 395.968 C 111.629 397.526,112.813 399.520,113.620 400.400 C 114.426 401.280,116.216 404.160,117.597 406.800 C 118.979 409.440,120.927 412.500,121.927 413.600 C 122.927 414.700,124.206 416.770,124.769 418.200 C 125.333 419.630,126.110 420.800,126.497 420.800 C 126.884 420.800,127.200 421.275,127.200 421.856 C 127.200 422.437,128.460 424.384,130.000 426.183 C 131.540 427.982,132.800 430.151,132.800 431.003 C 132.800 431.855,133.531 433.214,134.425 434.022 C 135.318 434.831,137.480 438.084,139.228 441.251 C 140.977 444.419,142.950 447.460,143.613 448.011 C 144.276 448.561,145.532 450.494,146.404 452.306 C 147.276 454.118,148.622 456.513,149.395 457.628 C 150.168 458.743,151.520 460.875,152.400 462.364 C 153.280 463.854,155.890 467.905,158.200 471.367 C 160.510 474.829,162.400 477.957,162.400 478.318 C 162.400 478.679,163.657 480.555,165.192 482.487 C 166.728 484.419,167.988 486.484,167.992 487.075 C 167.997 487.667,169.581 490.229,171.512 492.769 C 173.444 495.309,175.277 498.183,175.586 499.155 C 175.895 500.128,177.953 503.326,180.159 506.262 C 182.366 509.198,184.383 512.140,184.640 512.800 C 185.193 514.216,192.797 524.135,193.983 524.988 C 196.449 526.762,198.311 524.851,205.282 513.389 C 206.557 511.293,208.410 508.593,209.399 507.389 C 210.388 506.185,211.198 504.880,211.199 504.490 C 211.200 503.844,216.745 495.118,222.522 486.669 C 223.775 484.837,224.800 483.108,224.800 482.827 C 224.800 482.546,226.780 479.309,229.200 475.635 C 231.620 471.960,233.600 468.715,233.600 468.423 C 233.600 468.132,234.500 466.713,235.600 465.271 C 236.700 463.829,237.600 462.233,237.600 461.724 C 237.600 461.216,237.909 460.800,238.286 460.800 C 238.664 460.800,239.903 459.007,241.040 456.816 C 242.176 454.625,243.497 452.375,243.974 451.816 C 244.452 451.257,245.962 449.000,247.332 446.800 C 248.701 444.600,250.851 441.301,252.111 439.469 C 253.370 437.637,254.400 435.908,254.400 435.627 C 254.400 435.346,256.314 432.165,258.653 428.558 C 263.204 421.542,270.717 409.652,272.977 405.892 C 274.601 403.189,275.232 402.192,279.989 394.800 C 281.972 391.720,284.061 388.132,284.631 386.826 C 285.202 385.520,285.955 384.260,286.303 384.026 C 287.017 383.546,292.800 374.591,292.800 373.965 C 292.800 373.743,293.970 371.819,295.400 369.690 C 298.409 365.209,303.515 357.170,306.400 352.372 C 307.500 350.543,310.002 346.381,311.960 343.123 C 313.918 339.865,316.348 336.182,317.360 334.939 C 318.372 333.695,319.200 332.351,319.200 331.953 C 319.200 331.554,321.180 328.304,323.600 324.729 C 326.020 321.155,328.000 317.773,328.000 317.213 C 328.000 316.654,328.511 315.772,329.135 315.254 C 329.759 314.736,331.811 311.722,333.696 308.556 C 335.581 305.390,337.860 301.845,338.761 300.678 C 339.663 299.510,341.480 296.685,342.800 294.400 C 344.120 292.115,346.010 289.238,347.000 288.007 C 347.990 286.776,348.802 285.281,348.803 284.685 C 348.805 284.088,349.884 281.980,351.200 280.000 C 352.516 278.020,353.595 275.854,353.597 275.186 C 353.598 274.518,354.500 272.647,355.600 271.028 C 356.700 269.409,357.602 267.436,357.604 266.642 C 357.606 265.849,358.495 263.760,359.579 262.000 C 360.663 260.240,361.561 257.961,361.575 256.936 C 361.589 255.911,362.486 252.851,363.568 250.136 C 364.650 247.421,365.950 242.500,366.456 239.200 C 366.962 235.900,367.934 232.120,368.616 230.800 C 371.881 224.479,371.747 167.857,368.452 161.600 C 367.404 159.609,366.819 156.142,366.427 149.600 C 366.014 142.692,365.467 139.603,364.232 137.200 C 363.328 135.440,362.321 132.740,361.994 131.200 C 361.668 129.660,360.763 127.497,359.983 126.393 C 359.203 125.289,358.166 122.901,357.677 121.086 C 357.188 119.271,356.270 117.356,355.635 116.829 C 355.001 116.303,354.057 114.551,353.537 112.936 C 353.017 111.321,352.231 109.546,351.790 108.991 C 350.927 107.904,349.169 104.908,346.044 99.200 C 344.960 97.220,342.981 94.340,341.645 92.800 C 337.728 88.283,337.600 88.107,337.600 87.234 C 337.600 86.775,337.240 86.400,336.800 86.400 C 336.360 86.400,336.000 85.925,336.000 85.344 C 336.000 84.218,331.835 79.200,330.900 79.200 C 330.594 79.200,330.769 80.010,331.289 81.000 M58.698 82.123 C 58.405 83.290,56.947 85.537,55.459 87.115 C 51.764 91.032,53.453 91.236,57.523 87.365 C 59.753 85.243,60.800 83.569,60.800 82.124 C 60.800 79.377,59.387 79.376,58.698 82.123 M49.610 93.582 C 48.919 94.873,48.987 95.078,49.981 94.696 C 50.652 94.439,51.200 93.727,51.200 93.114 C 51.200 91.552,50.602 91.728,49.610 93.582 M46.600 97.558 C 46.050 98.449,45.600 99.873,45.600 100.722 C 45.600 101.572,45.150 102.427,44.600 102.624 C 44.050 102.820,43.818 103.219,44.085 103.509 C 45.807 105.383,48.435 101.309,47.866 97.650 C 47.601 95.945,47.595 95.945,46.600 97.558 M42.133 105.333 C 41.840 105.627,41.600 106.723,41.600 107.770 C 41.600 108.816,40.680 110.593,39.555 111.718 C 38.339 112.933,37.609 114.460,37.755 115.481 C 37.912 116.583,37.066 118.110,35.400 119.733 C 33.518 121.567,32.800 122.986,32.800 124.870 C 32.800 126.302,32.177 128.162,31.415 129.004 C 30.071 130.489,30.094 130.505,32.200 129.546 C 34.599 128.453,35.567 126.417,34.815 124.049 C 34.464 122.941,34.849 122.220,36.162 121.529 C 38.622 120.233,39.173 119.272,39.188 116.254 C 39.197 114.347,39.802 113.281,41.600 112.000 C 43.468 110.670,44.000 109.683,44.000 107.546 C 44.000 104.946,43.323 104.144,42.133 105.333 M28.800 135.235 C 28.800 138.430,28.384 139.719,26.800 141.427 C 24.715 143.676,24.428 144.814,24.689 149.800 C 24.776 151.450,24.476 152.800,24.023 152.800 C 23.571 152.800,23.200 153.340,23.200 154.000 C 23.200 155.782,25.412 155.453,26.005 153.583 C 26.288 152.693,26.417 150.305,26.292 148.275 C 26.091 145.010,26.371 144.283,28.718 141.968 C 31.243 139.476,31.344 139.153,30.810 135.275 C 30.089 130.030,28.800 130.004,28.800 135.235 M20.533 159.733 C 19.667 160.600,19.926 232.247,20.800 233.600 C 21.785 235.124,21.732 237.437,21.698 194.902 C 21.671 160.452,21.611 158.655,20.533 159.733 M300.400 167.200 C 300.093 167.696,301.576 168.000,304.306 168.000 C 306.726 168.000,308.928 167.640,309.200 167.200 C 309.507 166.704,308.024 166.400,305.294 166.400 C 302.874 166.400,300.672 166.760,300.400 167.200 M292.800 170.479 C 290.408 170.946,288.708 171.856,287.733 173.191 C 286.482 174.904,285.635 175.200,281.974 175.200 C 278.505 175.200,277.269 175.583,275.524 177.200 C 273.787 178.810,272.540 179.200,269.130 179.200 C 266.801 179.200,264.672 179.560,264.400 180.000 C 263.258 181.848,272.874 180.880,275.214 178.911 C 276.755 177.614,278.948 176.854,282.215 176.485 C 285.798 176.079,287.429 175.460,288.825 173.973 C 289.909 172.819,291.577 172.000,292.841 172.000 C 294.031 172.000,295.452 171.460,296.000 170.800 C 296.548 170.140,296.862 169.639,296.698 169.688 C 296.534 169.736,294.780 170.092,292.800 170.479 M307.400 172.547 C 306.410 172.747,305.600 173.285,305.600 173.741 C 305.600 174.233,306.170 174.320,307.000 173.955 C 308.817 173.154,311.217 173.171,313.109 173.997 C 314.234 174.487,314.524 174.368,314.248 173.527 C 313.867 172.370,310.592 171.901,307.400 172.547 M294.000 177.281 C 292.500 178.434,292.625 178.492,296.000 178.216 C 301.406 177.773,303.954 176.048,299.200 176.050 C 297.190 176.050,294.893 176.594,294.000 177.281 M288.116 180.301 C 287.080 180.876,285.369 181.181,284.314 180.979 C 283.031 180.734,281.405 181.371,279.398 182.904 C 277.749 184.164,276.103 185.097,275.741 184.977 C 275.378 184.858,275.299 185.114,275.566 185.545 C 276.096 186.403,278.400 185.807,278.400 184.811 C 278.400 183.959,282.132 182.599,286.154 181.986 C 287.999 181.705,289.933 180.963,290.452 180.337 C 291.618 178.932,290.613 178.917,288.116 180.301 M316.000 182.000 C 316.000 182.660,316.270 183.200,316.600 183.200 C 317.385 183.200,317.209 215.966,316.413 217.835 C 315.605 219.733,316.455 220.482,317.981 219.216 C 319.236 218.175,319.888 185.125,318.714 182.065 C 318.097 180.457,316.000 180.407,316.000 182.000 M261.247 182.825 C 260.376 183.485,257.986 184.000,255.800 184.000 C 253.658 184.000,252.072 184.270,252.275 184.600 C 253.095 185.931,261.599 184.697,262.440 183.125 C 263.409 181.314,263.286 181.283,261.247 182.825 M266.398 187.604 C 265.808 188.706,264.937 189.563,264.463 189.509 C 259.398 188.931,254.467 189.728,254.000 191.199 C 253.649 192.306,252.518 192.954,250.329 193.304 C 247.007 193.835,245.211 195.200,247.833 195.200 C 250.492 195.200,254.400 193.487,254.400 192.322 C 254.400 191.324,259.745 190.638,263.727 191.124 C 264.238 191.186,265.415 190.271,266.344 189.090 C 267.368 187.788,269.207 186.715,271.016 186.363 L 274.000 185.784 270.735 185.692 C 268.021 185.616,267.290 185.938,266.398 187.604 M244.220 187.933 C 238.122 188.674,237.204 190.173,243.200 189.600 C 245.827 189.349,248.414 188.706,248.948 188.172 C 249.483 187.637,249.578 187.251,249.160 187.313 C 248.742 187.375,246.519 187.654,244.220 187.933 M227.633 194.636 C 225.706 196.591,224.888 196.894,222.563 196.517 C 219.665 196.046,215.805 197.499,214.640 199.498 C 214.250 200.167,211.982 200.761,208.830 201.020 C 204.876 201.345,203.340 201.840,202.302 203.123 C 201.329 204.324,200.028 204.800,197.719 204.800 C 195.945 204.800,194.268 205.166,193.992 205.613 C 193.716 206.060,193.154 206.219,192.745 205.966 C 192.335 205.713,192.000 205.881,192.000 206.339 C 192.000 208.102,200.141 206.793,201.976 204.734 C 204.029 202.432,204.932 202.131,209.392 202.264 C 212.099 202.344,213.333 201.883,215.498 199.982 C 217.772 197.986,218.892 197.600,222.414 197.600 C 225.869 197.600,226.946 197.244,228.470 195.600 C 229.666 194.310,231.189 193.600,232.762 193.600 C 234.103 193.600,235.200 193.229,235.200 192.775 C 235.200 191.018,229.917 192.317,227.633 194.636 M235.600 198.181 C 234.280 198.369,232.840 198.896,232.400 199.351 C 231.854 199.917,232.108 200.032,233.200 199.715 C 234.080 199.459,236.175 199.163,237.856 199.057 C 239.537 198.952,241.088 198.581,241.303 198.233 C 241.702 197.587,239.887 197.571,235.600 198.181 M224.000 202.330 C 221.403 202.608,220.001 203.060,220.578 203.434 C 221.765 204.202,228.000 203.924,228.000 203.102 C 228.000 202.781,228.630 202.353,229.400 202.151 C 231.206 201.680,229.600 201.733,224.000 202.330 M216.628 206.038 C 216.387 206.279,214.290 206.636,211.969 206.831 C 205.971 207.336,205.869 208.132,211.830 207.917 C 214.819 207.809,217.179 207.308,217.709 206.668 C 218.546 205.660,217.573 205.093,216.628 206.038 M204.460 209.648 C 203.333 210.783,201.816 211.200,198.804 211.200 C 195.411 211.200,194.383 211.551,192.950 213.200 C 191.501 214.866,190.498 215.200,186.945 215.200 C 183.429 215.200,182.349 215.552,180.800 217.200 C 179.526 218.556,178.064 219.200,176.261 219.200 C 174.797 219.200,173.600 219.560,173.600 220.000 C 173.600 221.761,179.058 220.833,180.657 218.800 C 181.923 217.190,182.941 216.800,185.869 216.800 C 189.438 216.800,195.200 214.281,195.200 212.721 C 195.200 212.324,196.803 212.000,198.762 212.000 C 202.847 212.000,206.400 210.638,206.400 209.072 C 206.400 207.734,206.340 207.752,204.460 209.648 M183.600 209.600 C 183.306 210.075,184.243 210.400,185.906 210.400 C 187.446 210.400,188.928 210.040,189.200 209.600 C 189.494 209.125,188.557 208.800,186.894 208.800 C 185.354 208.800,183.872 209.160,183.600 209.600 M167.894 215.874 C 167.035 216.877,165.008 217.518,161.551 217.879 C 154.299 218.637,153.372 220.110,160.432 219.656 C 164.636 219.386,166.418 218.895,167.712 217.649 C 168.654 216.742,169.915 215.994,170.513 215.988 C 171.111 215.981,172.140 215.627,172.800 215.200 C 173.721 214.605,173.436 214.422,171.578 214.412 C 170.202 214.405,168.610 215.037,167.894 215.874 M153.585 222.018 C 153.029 222.688,151.957 223.040,151.203 222.801 C 150.449 222.562,148.970 222.688,147.916 223.081 C 146.378 223.655,146.761 223.777,149.856 223.698 C 152.626 223.627,153.934 223.205,154.496 222.200 C 155.461 220.476,154.949 220.374,153.585 222.018 M142.400 225.200 C 140.857 226.842,139.768 227.200,136.308 227.200 C 133.990 227.200,131.921 227.481,131.708 227.825 C 130.339 230.041,140.870 228.094,143.087 225.721 C 144.382 224.335,145.180 223.200,144.860 223.200 C 144.541 223.200,143.433 224.100,142.400 225.200 M164.400 223.793 C 161.482 224.015,159.825 224.646,158.275 226.126 C 156.556 227.768,155.373 228.149,152.065 228.123 C 148.741 228.097,147.644 228.454,146.174 230.039 C 144.789 231.533,143.255 232.094,139.584 232.450 C 133.260 233.063,132.800 233.254,132.800 235.264 L 132.800 236.977 134.200 235.312 C 135.283 234.025,136.650 233.611,140.234 233.486 C 144.041 233.352,145.112 232.993,146.234 231.474 C 147.323 230.000,148.436 229.598,151.721 229.489 C 155.037 229.379,156.319 228.907,158.278 227.076 C 160.289 225.196,161.417 224.800,164.757 224.800 C 166.980 224.800,168.800 224.440,168.800 224.000 C 168.800 223.560,168.710 223.265,168.600 223.344 C 168.490 223.424,166.600 223.625,164.400 223.793 M313.400 223.664 C 313.070 223.996,312.798 226.277,312.795 228.733 C 312.792 231.190,312.252 234.231,311.595 235.491 C 310.059 238.437,310.049 238.412,312.395 237.325 C 313.654 236.741,314.552 235.516,314.831 234.000 C 315.372 231.064,314.232 222.829,313.400 223.664 M124.220 231.133 C 121.920 231.412,119.626 232.054,119.122 232.558 C 118.432 233.248,118.928 233.312,121.121 232.818 C 122.726 232.456,124.685 232.329,125.475 232.536 C 126.265 232.742,127.381 232.346,127.954 231.656 C 128.527 230.965,128.862 230.451,128.698 230.513 C 128.534 230.575,126.519 230.854,124.220 231.133 M115.200 235.200 C 114.540 235.627,112.856 235.981,111.457 235.988 C 108.982 236.000,106.400 237.699,106.400 239.315 C 106.400 239.756,107.349 239.370,108.508 238.458 C 109.667 237.546,111.557 236.789,112.708 236.775 C 113.859 236.761,115.499 236.221,116.353 235.575 C 118.067 234.278,117.109 233.967,115.200 235.200 M22.984 237.660 C 23.205 238.507,23.654 239.200,23.982 239.200 C 24.309 239.200,24.593 241.758,24.613 244.884 C 24.632 248.010,25.042 250.962,25.524 251.444 C 26.536 252.456,26.791 239.406,25.788 237.942 C 24.606 236.216,22.552 236.009,22.984 237.660 M120.258 238.600 C 119.456 239.590,117.720 240.521,116.400 240.669 C 112.828 241.069,112.435 242.000,115.839 242.000 C 118.096 242.000,119.129 241.524,120.181 240.000 C 121.329 238.339,122.414 237.922,126.581 237.538 L 131.600 237.076 126.658 236.938 C 122.405 236.819,121.513 237.051,120.258 238.600 M309.400 239.660 C 309.070 239.994,308.800 241.865,308.800 243.818 C 308.800 246.654,308.397 247.687,306.800 248.943 C 305.467 249.992,304.800 251.310,304.800 252.898 C 304.800 254.537,303.927 256.178,302.000 258.162 C 300.460 259.748,299.200 261.350,299.200 261.723 C 299.200 263.061,300.641 262.362,301.926 260.400 C 302.647 259.300,303.730 258.400,304.333 258.400 C 305.631 258.400,306.400 256.675,306.400 253.765 C 306.400 252.466,307.183 251.036,308.446 250.029 C 310.286 248.562,310.467 247.927,310.246 243.726 C 310.111 241.156,309.730 239.327,309.400 239.660 M94.921 242.858 C 93.668 244.366,92.048 245.606,91.321 245.612 C 88.715 245.636,87.572 246.920,88.818 248.422 C 90.179 250.062,95.378 249.611,97.525 247.668 C 98.453 246.828,100.441 246.400,103.416 246.400 C 105.885 246.400,108.104 246.079,108.347 245.686 C 108.590 245.293,106.566 244.941,103.851 244.902 C 96.442 244.798,95.625 242.619,102.400 241.034 L 106.000 240.192 101.600 240.154 C 97.545 240.119,97.021 240.331,94.921 242.858 " stroke="none" fill="#b8b8b8" fill-rule="evenodd"></path><path id="path2" d="M278.400 286.256 C 277.740 286.555,277.083 287.330,276.941 287.978 C 276.748 288.856,277.104 288.773,278.341 287.654 C 280.592 285.616,280.607 285.256,278.400 286.256 M195.009 319.766 C 196.004 319.957,197.444 319.950,198.209 319.750 C 198.974 319.549,198.160 319.393,196.400 319.402 C 194.640 319.411,194.014 319.574,195.009 319.766 " stroke="none" fill="#ff0000" fill-rule="evenodd"></path><path id="path3" d="M155.300 24.093 C 153.450 25.937,152.353 26.244,146.098 26.662 C 140.177 27.058,138.805 27.408,137.852 28.768 C 137.033 29.937,135.823 30.400,133.583 30.400 C 131.155 30.400,130.245 30.802,129.508 32.200 C 128.245 34.599,127.261 35.173,124.390 35.188 C 122.762 35.196,121.492 35.849,120.478 37.200 C 119.445 38.575,118.199 39.204,116.488 39.212 C 113.667 39.226,112.779 39.723,111.504 42.000 C 110.831 43.201,109.776 43.600,107.268 43.600 C 104.487 43.600,103.854 43.897,103.484 45.371 C 103.023 47.214,102.392 47.524,97.400 48.366 C 95.540 48.680,94.400 49.315,94.400 50.036 C 94.400 50.676,94.014 51.200,93.543 51.200 C 92.663 51.200,90.400 53.151,90.400 53.909 C 90.400 55.513,83.896 60.901,82.225 60.682 C 81.096 60.534,79.551 61.156,78.413 62.217 C 77.360 63.197,76.267 64.000,75.984 64.000 C 75.702 64.000,74.989 64.900,74.400 66.000 C 73.811 67.100,72.982 68.000,72.558 68.000 C 71.700 68.000,68.003 72.057,68.001 73.000 C 68.000 73.330,67.614 73.600,67.143 73.600 C 66.121 73.600,64.000 75.602,64.000 76.566 C 64.000 76.941,63.280 77.766,62.400 78.400 C 61.426 79.102,60.800 80.471,60.800 81.900 C 60.800 83.965,55.583 90.400,53.909 90.400 C 53.237 90.400,51.200 92.618,51.200 93.350 C 51.200 93.716,50.480 94.465,49.600 95.014 C 48.507 95.697,48.000 96.880,48.000 98.750 C 48.000 101.347,46.354 104.000,44.743 104.000 C 44.334 104.000,44.000 105.415,44.000 107.146 C 44.000 109.727,43.570 110.597,41.600 112.000 C 39.802 113.281,39.197 114.347,39.188 116.254 C 39.173 119.272,38.622 120.233,36.162 121.529 C 34.849 122.220,34.464 122.941,34.815 124.049 C 35.558 126.390,34.607 128.449,32.295 129.502 C 30.313 130.405,30.246 130.644,30.780 134.915 C 31.318 139.225,31.245 139.475,28.701 141.984 C 26.372 144.282,26.091 145.014,26.292 148.275 C 26.546 152.403,25.898 155.200,24.689 155.200 C 21.761 155.200,21.681 156.336,21.749 196.682 C 21.815 235.949,21.815 235.961,23.507 236.488 C 26.064 237.285,26.374 238.238,26.388 245.343 C 26.400 251.930,26.454 252.075,29.972 255.032 C 30.648 255.599,31.200 257.288,31.200 258.784 C 31.200 260.281,31.524 261.706,31.919 261.950 C 32.315 262.195,34.640 266.479,37.086 271.472 C 39.532 276.464,42.089 281.010,42.767 281.572 C 43.445 282.135,44.000 283.272,44.000 284.098 C 44.000 284.924,44.701 286.301,45.557 287.157 C 46.414 288.014,47.730 289.904,48.481 291.357 C 50.103 294.493,52.511 298.039,54.894 300.800 C 55.843 301.900,56.891 303.700,57.223 304.800 C 57.554 305.900,58.515 307.700,59.358 308.800 C 62.134 312.421,65.571 317.984,65.585 318.881 C 65.593 319.366,66.680 320.893,68.000 322.274 C 69.320 323.655,70.400 325.453,70.400 326.269 C 70.400 327.085,71.120 328.404,72.000 329.200 C 72.880 329.996,73.600 331.067,73.600 331.580 C 73.600 332.092,74.661 333.700,75.958 335.153 C 77.254 336.605,78.543 338.828,78.820 340.092 C 79.098 341.356,79.797 342.663,80.374 342.995 C 81.382 343.576,83.444 346.850,86.551 352.800 C 87.355 354.340,88.537 355.990,89.178 356.467 C 89.819 356.945,91.027 358.930,91.862 360.879 C 92.698 362.828,93.971 364.912,94.691 365.509 C 95.411 366.107,96.000 366.950,96.000 367.382 C 96.000 367.815,96.900 369.239,98.000 370.546 C 99.100 371.853,100.000 373.435,100.000 374.061 C 100.000 374.688,100.705 375.905,101.567 376.767 C 102.429 377.629,103.959 379.819,104.967 381.635 C 105.975 383.452,107.403 386.025,108.141 387.354 C 108.878 388.683,110.228 390.566,111.141 391.537 C 112.053 392.508,112.800 393.882,112.800 394.590 C 112.800 395.298,113.629 396.895,114.643 398.139 C 117.501 401.647,121.600 408.171,121.600 409.213 C 121.600 409.730,122.350 410.831,123.266 411.660 C 124.182 412.489,125.436 414.255,126.051 415.584 C 127.835 419.436,129.930 422.811,132.248 425.565 C 133.431 426.972,134.400 428.608,134.400 429.200 C 134.400 429.792,135.300 431.347,136.400 432.654 C 137.500 433.961,138.400 435.305,138.400 435.640 C 138.400 435.975,139.232 437.363,140.249 438.724 C 141.266 440.086,142.570 442.370,143.146 443.800 C 143.723 445.230,144.503 446.400,144.881 446.400 C 145.258 446.400,146.385 447.871,147.384 449.669 C 148.383 451.466,149.765 453.948,150.457 455.183 C 151.148 456.418,152.678 458.574,153.857 459.975 C 155.035 461.376,156.000 462.986,156.000 463.551 C 156.000 464.117,156.990 465.878,158.200 467.465 C 161.242 471.455,164.800 477.245,164.800 478.206 C 164.800 478.645,165.322 479.437,165.960 479.967 C 166.979 480.812,171.853 488.626,172.717 490.800 C 172.892 491.240,174.062 492.783,175.318 494.228 C 176.573 495.673,177.600 497.259,177.600 497.752 C 177.600 498.245,178.500 499.829,179.600 501.271 C 180.700 502.713,181.600 504.221,181.600 504.623 C 181.600 505.024,182.357 506.037,183.282 506.874 C 184.207 507.711,185.518 509.477,186.194 510.798 C 186.871 512.119,188.184 514.165,189.113 515.345 C 190.041 516.525,191.700 518.765,192.800 520.323 C 193.900 521.881,195.186 523.166,195.658 523.178 C 196.505 523.200,200.800 517.236,200.800 516.038 C 200.800 515.698,201.790 514.135,203.000 512.563 C 204.210 510.992,206.280 507.859,207.600 505.600 C 208.920 503.341,210.990 500.208,212.200 498.637 C 213.410 497.065,214.400 495.517,214.400 495.196 C 214.400 494.875,216.290 491.700,218.600 488.142 C 220.910 484.584,223.841 479.946,225.113 477.836 C 227.891 473.229,230.404 469.217,232.472 466.088 C 234.020 463.745,234.237 463.396,237.247 458.400 C 238.175 456.860,240.322 453.440,242.018 450.800 C 243.714 448.160,245.933 444.650,246.951 443.000 C 247.968 441.350,249.649 438.650,250.687 437.000 C 251.725 435.350,253.615 432.279,254.887 430.175 C 256.159 428.072,258.190 425.052,259.400 423.465 C 260.610 421.878,261.600 420.145,261.600 419.614 C 261.600 419.083,262.311 418.005,263.180 417.218 C 264.048 416.432,264.997 415.026,265.287 414.094 C 265.577 413.163,266.789 410.960,267.978 409.200 C 269.168 407.440,271.100 404.470,272.271 402.600 C 273.442 400.730,275.246 397.850,276.280 396.200 C 280.237 389.885,282.850 385.676,284.177 383.479 C 284.934 382.226,286.006 380.480,286.557 379.600 C 287.109 378.720,288.437 376.560,289.509 374.800 C 290.581 373.040,292.480 370.101,293.729 368.269 C 294.978 366.437,296.000 364.703,296.000 364.416 C 296.000 364.128,296.900 362.713,298.000 361.271 C 299.100 359.829,300.000 358.382,300.000 358.055 C 300.000 357.729,301.030 355.963,302.289 354.131 C 303.549 352.299,305.619 349.129,306.889 347.088 C 308.160 345.046,310.640 341.122,312.400 338.369 C 314.160 335.615,316.090 332.426,316.690 331.281 C 317.289 330.137,318.588 327.940,319.577 326.400 C 320.565 324.860,322.415 321.879,323.687 319.775 C 324.959 317.672,326.990 314.652,328.200 313.065 C 329.410 311.478,330.400 309.917,330.400 309.596 C 330.400 308.970,338.112 296.924,340.640 293.600 C 341.477 292.500,343.714 288.720,345.611 285.200 C 347.508 281.680,349.508 278.260,350.055 277.600 C 350.603 276.940,351.447 274.912,351.931 273.093 C 352.415 271.274,353.309 269.374,353.917 268.869 C 354.525 268.364,355.410 266.433,355.883 264.576 C 356.356 262.719,357.476 259.774,358.372 258.031 C 359.267 256.288,360.000 254.403,360.000 253.843 C 360.000 253.282,361.080 249.573,362.400 245.600 C 363.720 241.627,364.800 237.235,364.800 235.839 C 364.800 234.444,365.610 230.579,366.600 227.251 C 369.394 217.860,369.346 174.840,366.531 165.200 C 365.278 160.907,364.598 156.298,364.465 151.200 C 364.318 145.557,363.844 142.673,362.624 140.000 C 361.720 138.020,360.727 135.208,360.416 133.751 C 360.105 132.294,358.989 129.594,357.935 127.751 C 356.881 125.908,356.015 123.639,356.010 122.708 C 356.004 121.777,355.349 120.157,354.553 119.108 C 353.757 118.059,351.787 114.494,350.175 111.186 C 348.564 107.878,346.335 103.938,345.223 102.431 C 344.110 100.923,343.200 99.178,343.200 98.553 C 343.200 97.928,341.424 95.367,339.254 92.862 C 337.083 90.357,335.063 87.333,334.764 86.143 C 334.466 84.953,333.774 83.714,333.227 83.390 C 332.681 83.065,331.772 81.923,331.209 80.850 C 330.645 79.778,329.866 78.518,329.477 78.050 C 329.088 77.583,328.089 76.372,327.257 75.360 C 326.339 74.244,325.539 73.851,325.225 74.360 C 324.939 74.822,325.087 75.200,325.553 75.200 C 326.019 75.200,326.400 75.737,326.400 76.393 C 326.400 77.049,327.120 78.036,328.000 78.586 C 329.139 79.297,329.600 80.451,329.600 82.592 C 329.600 85.010,329.897 85.600,331.114 85.600 C 331.947 85.600,332.847 86.169,333.114 86.865 C 333.958 89.064,333.641 92.000,332.560 92.000 C 330.972 92.000,329.600 90.282,329.600 88.294 C 329.600 87.198,328.969 86.307,327.967 85.990 C 326.984 85.678,326.143 84.517,325.855 83.073 C 325.549 81.546,324.684 80.412,323.473 79.952 C 322.427 79.554,321.227 78.322,320.805 77.214 C 320.384 76.106,319.500 75.200,318.840 75.200 C 318.181 75.200,317.083 74.120,316.400 72.800 C 315.717 71.480,314.652 70.400,314.033 70.400 C 313.414 70.400,312.685 69.698,312.413 68.841 C 312.141 67.983,311.196 67.053,310.313 66.772 C 309.431 66.492,308.382 65.404,307.982 64.354 C 307.546 63.206,306.368 62.250,305.028 61.956 C 301.256 61.127,300.800 60.888,300.800 59.734 C 300.800 59.120,302.150 58.033,303.800 57.319 C 306.334 56.222,306.461 56.063,304.617 56.296 C 302.856 56.518,302.237 56.130,301.421 54.286 C 300.865 53.029,300.151 52.000,299.836 52.000 C 299.520 52.000,298.528 51.212,297.631 50.249 C 296.317 48.839,296.000 48.750,296.000 49.792 C 296.000 51.225,298.066 53.600,299.313 53.600 C 299.752 53.600,299.996 54.410,299.856 55.400 C 299.517 57.784,296.376 58.322,295.794 56.097 C 295.525 55.068,294.254 54.207,292.182 53.649 C 286.792 52.198,286.465 50.773,291.165 49.212 C 295.804 47.671,296.484 46.781,292.443 47.539 C 290.209 47.958,289.529 47.761,288.854 46.500 C 287.591 44.141,283.200 39.981,283.200 41.145 C 283.200 41.707,284.087 43.123,285.171 44.293 C 286.268 45.477,286.940 46.948,286.685 47.610 C 285.969 49.477,283.550 49.004,282.546 46.800 C 281.895 45.373,280.999 44.796,279.417 44.788 C 274.781 44.762,274.122 41.876,278.400 40.332 C 279.940 39.776,280.660 39.253,280.000 39.169 C 279.340 39.084,278.367 38.967,277.837 38.908 C 277.308 38.848,276.329 38.080,275.663 37.200 C 274.500 35.665,274.450 35.705,274.425 38.200 C 274.402 40.623,274.213 40.800,271.657 40.800 C 267.336 40.800,265.412 38.357,268.682 37.023 C 271.566 35.846,272.013 34.400,269.494 34.400 C 268.555 34.400,267.113 33.622,266.288 32.671 L 264.788 30.942 265.299 33.497 L 265.811 36.053 260.620 35.745 C 253.368 35.314,250.917 32.852,257.702 32.812 C 258.858 32.806,260.252 32.260,260.800 31.600 C 261.657 30.567,261.344 30.400,258.543 30.400 C 256.140 30.400,254.982 29.959,254.107 28.710 C 252.939 27.042,252.920 27.050,252.662 29.310 L 252.400 31.600 244.800 31.319 C 240.620 31.164,236.843 30.699,236.407 30.285 C 234.982 28.935,237.834 27.917,241.724 28.386 C 245.113 28.795,249.598 27.705,249.601 26.472 C 249.602 26.212,247.603 26.124,245.160 26.276 C 239.721 26.615,236.800 25.954,236.800 24.385 C 236.800 23.733,236.440 23.200,236.000 23.200 C 235.560 23.200,235.200 23.714,235.200 24.343 C 235.200 26.099,232.748 28.151,231.309 27.599 C 230.603 27.328,215.079 26.945,196.812 26.748 C 159.288 26.344,158.237 26.302,157.868 25.200 C 157.691 24.673,169.544 24.460,192.600 24.576 C 225.340 24.741,235.687 24.219,233.956 22.490 C 233.686 22.220,216.351 22.000,195.432 22.000 L 157.399 22.000 155.300 24.093 M154.400 30.000 C 154.400 30.933,153.333 31.200,149.600 31.200 C 142.199 31.200,143.474 29.098,151.000 28.893 C 153.530 28.824,154.400 29.107,154.400 30.000 M135.000 33.304 C 137.575 33.994,137.223 35.200,134.447 35.200 C 132.099 35.200,130.787 34.280,131.755 33.312 C 132.377 32.689,132.703 32.689,135.000 33.304 M129.511 38.084 C 129.928 38.448,125.784 40.000,124.395 40.000 C 123.013 40.000,122.143 38.664,122.815 37.575 C 123.258 36.860,128.571 37.263,129.511 38.084 M119.240 41.600 C 121.409 41.600,120.316 43.890,117.853 44.508 C 116.770 44.780,115.501 44.621,115.035 44.155 C 113.808 42.928,114.942 40.530,116.472 41.117 C 117.164 41.383,118.410 41.600,119.240 41.600 M111.933 46.871 C 112.547 47.476,111.622 47.850,108.824 48.126 C 106.620 48.343,105.985 48.090,105.745 46.896 C 105.466 45.509,110.531 45.488,111.933 46.871 M103.200 51.200 C 103.200 51.640,102.141 52.000,100.847 52.000 C 99.553 52.000,98.272 51.640,98.000 51.200 C 97.706 50.724,98.658 50.400,100.353 50.400 C 101.919 50.400,103.200 50.760,103.200 51.200 M94.689 55.600 C 94.436 56.260,93.907 56.800,93.514 56.800 C 93.121 56.800,92.800 56.260,92.800 55.600 C 92.800 54.940,93.329 54.400,93.975 54.400 C 94.691 54.400,94.970 54.869,94.689 55.600 M308.600 58.130 C 309.150 58.352,309.600 59.043,309.600 59.667 C 309.600 60.290,310.196 60.800,310.924 60.800 C 312.115 60.800,312.102 60.639,310.800 59.200 C 310.004 58.320,308.958 57.628,308.476 57.663 C 307.970 57.700,308.023 57.897,308.600 58.130 M91.059 59.734 C 90.669 61.741,88.800 62.016,88.800 60.067 C 88.800 59.084,89.317 58.400,90.059 58.400 C 90.804 58.400,91.212 58.944,91.059 59.734 M313.600 62.857 C 313.600 63.704,315.877 65.600,316.894 65.600 C 317.468 65.600,317.163 64.911,316.184 64.000 C 314.456 62.390,313.600 62.011,313.600 62.857 M85.958 63.932 C 86.499 64.807,84.807 65.514,83.405 64.998 C 82.857 64.797,82.608 64.310,82.852 63.916 C 83.428 62.984,85.378 62.994,85.958 63.932 M317.625 66.840 C 317.596 67.820,319.230 69.600,320.160 69.600 C 320.512 69.600,320.800 69.180,320.800 68.667 C 320.800 68.153,320.566 67.968,320.279 68.254 C 319.993 68.541,319.284 68.151,318.705 67.388 C 318.125 66.624,317.639 66.378,317.625 66.840 M209.683 68.568 L 214.800 69.137 211.200 69.709 C 206.401 70.472,187.915 70.533,182.400 69.805 L 178.000 69.223 181.600 68.732 C 186.883 68.011,203.775 67.912,209.683 68.568 M321.861 70.727 C 322.158 71.499,322.400 72.461,322.400 72.865 C 322.400 73.269,322.940 73.600,323.600 73.600 C 325.217 73.600,325.114 73.114,323.061 71.061 C 321.688 69.688,321.436 69.618,321.861 70.727 M73.600 72.400 C 73.600 73.060,73.060 73.600,72.400 73.600 C 71.740 73.600,71.200 73.060,71.200 72.400 C 71.200 71.740,71.740 71.200,72.400 71.200 C 73.060 71.200,73.600 71.740,73.600 72.400 M168.686 72.527 C 170.516 73.017,170.495 73.064,167.995 74.116 C 164.674 75.512,162.040 75.494,160.855 74.067 C 159.454 72.378,164.455 71.394,168.686 72.527 M230.800 72.767 L 233.200 73.344 230.800 74.331 C 228.887 75.118,227.773 75.112,225.310 74.301 C 220.386 72.681,225.039 71.380,230.800 72.767 M211.600 74.819 C 214.240 75.396,218.740 76.118,221.600 76.423 C 224.460 76.728,228.859 77.838,231.376 78.889 C 233.893 79.940,236.587 80.800,237.364 80.800 C 238.141 80.800,240.582 81.685,242.789 82.766 C 244.995 83.847,248.060 85.303,249.600 86.001 C 251.140 86.700,254.075 88.245,256.123 89.436 C 258.171 90.626,261.051 92.280,262.523 93.111 C 263.995 93.942,266.322 95.562,267.694 96.711 C 269.066 97.860,271.572 99.880,273.263 101.200 C 280.890 107.154,298.400 126.625,298.400 129.152 C 298.400 129.702,299.120 130.804,300.000 131.600 C 300.880 132.396,301.600 133.449,301.600 133.938 C 301.600 134.428,302.464 136.100,303.520 137.654 C 304.576 139.208,305.914 142.081,306.495 144.040 C 307.075 145.998,308.191 148.298,308.975 149.151 C 309.800 150.049,310.400 151.935,310.400 153.631 C 310.400 155.243,310.786 157.669,311.258 159.024 C 311.851 160.725,311.862 161.963,311.293 163.026 C 310.568 164.381,310.704 164.520,312.435 164.189 C 314.264 163.839,314.400 164.041,314.400 167.107 C 314.400 170.245,314.285 170.400,311.960 170.400 C 309.057 170.400,304.795 172.440,304.812 173.821 C 304.822 174.581,304.965 174.578,305.456 173.806 C 306.426 172.278,313.489 171.514,313.890 172.893 C 315.729 179.224,316.397 180.800,317.242 180.800 C 318.984 180.800,319.200 183.006,319.200 200.749 L 319.200 218.168 316.686 220.251 C 314.209 222.303,314.180 222.409,314.706 227.547 C 315.359 233.918,314.847 236.224,312.556 237.229 C 311.036 237.896,310.768 238.728,310.563 243.406 C 310.357 248.126,310.078 248.974,308.363 250.098 C 307.052 250.957,306.400 252.128,306.400 253.627 C 306.400 256.439,305.671 258.400,304.624 258.400 C 303.447 258.400,293.600 268.741,293.600 269.977 C 293.600 270.556,293.043 271.243,292.362 271.504 C 291.681 271.765,290.759 273.028,290.312 274.309 C 289.865 275.591,288.802 276.822,287.950 277.045 C 287.039 277.283,286.400 278.141,286.400 279.125 C 286.400 280.273,285.891 280.800,284.780 280.800 C 283.809 280.800,282.870 281.564,282.435 282.708 C 281.599 284.907,277.062 289.391,275.000 290.056 C 274.230 290.305,273.600 291.180,273.600 292.001 C 273.600 293.019,272.926 293.574,271.481 293.747 C 270.315 293.886,268.965 294.705,268.481 295.566 C 267.031 298.145,265.798 299.200,264.234 299.200 C 263.419 299.200,262.235 299.918,261.603 300.796 C 260.970 301.674,259.303 302.608,257.900 302.872 C 256.319 303.168,255.195 303.931,254.949 304.875 C 254.706 305.802,253.814 306.423,252.675 306.459 C 249.276 306.567,246.878 307.226,246.265 308.220 C 244.201 311.569,243.516 312.000,240.263 312.000 C 238.266 312.000,236.617 312.444,236.240 313.083 C 235.030 315.132,232.094 316.000,226.378 316.000 C 221.415 316.000,220.597 316.204,220.251 317.527 C 219.597 320.029,171.200 320.428,171.200 317.931 C 171.200 316.605,169.326 316.161,162.188 315.798 C 157.699 315.570,156.566 315.223,155.543 313.761 C 154.586 312.396,153.511 312.000,150.755 312.000 C 148.800 312.000,147.200 311.640,147.200 311.200 C 147.200 310.760,146.745 310.400,146.190 310.400 C 145.634 310.400,144.824 309.590,144.390 308.600 C 143.580 306.755,143.371 306.672,139.125 306.500 C 137.384 306.430,136.528 305.932,136.237 304.820 C 135.971 303.803,134.884 303.063,133.185 302.744 C 131.528 302.434,130.399 301.683,130.149 300.725 C 129.882 299.706,129.042 299.200,127.618 299.200 C 125.353 299.200,123.849 298.095,122.976 295.788 C 122.682 295.011,121.554 294.039,120.469 293.626 C 119.385 293.214,118.103 292.139,117.620 291.238 C 117.138 290.337,116.036 289.600,115.172 289.600 C 114.133 289.600,113.600 289.057,113.600 288.000 C 113.600 286.933,113.067 286.400,112.000 286.400 C 111.120 286.400,110.400 286.007,110.400 285.526 C 110.400 283.738,107.522 281.191,105.200 280.924 C 103.880 280.773,102.671 280.295,102.513 279.863 C 102.355 279.430,101.275 278.077,100.113 276.855 C 94.302 270.743,89.916 265.206,89.166 263.036 C 88.707 261.708,87.774 260.211,87.092 259.711 C 86.410 259.210,85.395 257.360,84.837 255.600 C 84.278 253.840,83.376 251.680,82.832 250.800 C 82.287 249.920,81.580 247.760,81.261 246.000 C 80.942 244.240,79.857 241.360,78.850 239.600 C 77.843 237.840,76.778 234.511,76.483 232.203 C 76.187 229.895,75.161 226.295,74.201 224.203 C 71.521 218.361,71.475 179.536,74.141 172.800 C 75.099 170.380,76.123 166.609,76.417 164.421 C 76.711 162.232,77.818 158.815,78.876 156.827 C 79.934 154.839,80.801 152.670,80.803 152.006 C 80.805 151.343,81.883 148.640,83.200 146.000 C 84.517 143.360,85.595 140.806,85.597 140.324 C 85.599 139.842,86.311 138.805,87.180 138.018 C 88.048 137.232,88.998 135.826,89.289 134.894 C 91.065 129.217,105.888 111.674,116.069 103.200 C 125.879 95.036,133.721 89.911,142.400 85.995 C 143.940 85.300,147.005 83.847,149.211 82.766 C 151.418 81.685,153.859 80.800,154.636 80.800 C 155.413 80.800,158.107 79.936,160.624 78.880 C 163.141 77.824,167.720 76.712,170.800 76.410 C 173.880 76.107,177.840 75.477,179.600 75.010 C 188.036 72.771,201.850 72.689,211.600 74.819 M69.600 76.800 C 69.600 77.146,69.060 77.636,68.400 77.889 C 67.588 78.201,67.200 77.849,67.200 76.800 C 67.200 75.751,67.588 75.399,68.400 75.711 C 69.060 75.964,69.600 76.454,69.600 76.800 M154.204 77.800 C 154.024 78.350,152.310 78.914,150.396 79.053 C 147.315 79.277,147.035 79.162,147.956 78.053 C 149.222 76.528,154.696 76.306,154.204 77.800 M244.447 77.975 C 245.892 79.067,245.763 79.151,242.600 79.175 C 240.100 79.193,239.200 78.882,239.200 78.000 C 239.200 76.444,242.403 76.429,244.447 77.975 M143.800 82.200 C 144.025 82.876,143.204 83.200,141.267 83.200 C 138.295 83.200,137.347 81.999,139.800 81.343 C 141.935 80.772,143.432 81.093,143.800 82.200 M254.400 82.400 C 254.400 83.419,251.177 83.419,249.600 82.400 C 248.707 81.823,249.168 81.621,251.400 81.612 C 253.050 81.606,254.400 81.960,254.400 82.400 M64.997 83.400 C 65.474 84.698,64.870 86.400,63.933 86.400 C 63.530 86.400,63.200 85.500,63.200 84.400 C 63.200 82.314,64.360 81.668,64.997 83.400 M134.800 86.400 C 134.528 86.840,133.607 87.200,132.753 87.200 C 131.899 87.200,131.200 86.840,131.200 86.400 C 131.200 85.960,132.121 85.600,133.247 85.600 C 134.408 85.600,135.080 85.946,134.800 86.400 M61.014 90.506 C 60.515 91.005,59.453 91.159,58.654 90.849 C 57.268 90.312,57.273 90.232,58.757 89.140 C 60.586 87.794,62.542 88.978,61.014 90.506 M127.489 90.800 C 127.822 91.667,127.402 92.000,125.975 92.000 C 124.055 92.000,123.450 91.217,124.533 90.133 C 125.461 89.205,127.012 89.555,127.489 90.800 M337.458 93.856 C 337.611 94.647,337.521 95.853,337.258 96.537 C 336.552 98.376,334.400 96.348,334.400 93.843 C 334.400 91.511,337.009 91.522,337.458 93.856 M56.800 94.059 C 56.800 94.804,56.256 95.212,55.466 95.059 C 53.459 94.669,53.184 92.800,55.133 92.800 C 56.116 92.800,56.800 93.317,56.800 94.059 M121.966 95.255 C 121.368 96.222,118.400 96.225,118.400 95.259 C 118.400 94.448,120.830 93.692,121.813 94.196 C 122.150 94.369,122.219 94.846,121.966 95.255 M52.800 99.233 C 52.800 101.154,51.977 103.200,51.203 103.200 C 50.367 103.200,49.386 97.794,50.032 96.748 C 50.753 95.581,52.800 97.419,52.800 99.233 M341.059 98.200 C 342.688 100.968,342.476 104.120,340.678 103.866 C 338.837 103.605,337.983 101.181,338.824 98.600 C 339.183 97.497,340.505 97.260,341.059 98.200 M108.973 104.947 C 107.751 106.169,106.850 105.267,107.527 103.501 C 107.928 102.458,108.275 102.355,108.986 103.066 C 109.698 103.778,109.695 104.225,108.973 104.947 M48.650 107.767 C 49.213 111.704,47.041 113.528,46.001 109.991 C 45.485 108.236,45.217 106.510,45.406 106.156 C 46.079 104.892,48.404 106.047,48.650 107.767 M346.000 107.200 C 346.587 109.049,345.830 112.000,344.769 112.000 C 343.961 112.000,342.449 107.138,342.965 106.200 C 343.618 105.012,345.503 105.633,346.000 107.200 M105.600 108.025 C 105.600 108.983,103.344 110.010,102.685 109.352 C 101.985 108.651,103.173 107.200,104.447 107.200 C 105.081 107.200,105.600 107.571,105.600 108.025 M350.026 115.419 C 350.891 118.863,349.240 121.613,348.163 118.522 C 347.257 115.923,347.591 113.600,348.870 113.600 C 349.255 113.600,349.775 114.418,350.026 115.419 M44.270 117.509 C 44.169 119.618,42.572 122.249,41.934 121.357 C 40.526 119.386,41.007 114.318,42.581 114.542 C 44.096 114.757,44.378 115.253,44.270 117.509 M96.000 119.600 C 96.000 120.700,95.640 121.600,95.200 121.600 C 94.306 121.600,94.103 118.963,94.933 118.133 C 95.815 117.251,96.000 117.506,96.000 119.600 M39.506 125.854 C 39.341 131.148,37.979 131.054,37.121 125.689 C 36.625 122.582,36.721 122.269,38.085 122.546 C 39.270 122.786,39.580 123.508,39.506 125.854 M354.113 123.606 C 354.774 125.328,353.667 130.536,352.760 129.975 C 351.729 129.338,351.789 122.400,352.825 122.400 C 353.279 122.400,353.858 122.943,354.113 123.606 M92.000 125.600 C 92.000 126.489,91.467 127.200,90.800 127.200 C 90.133 127.200,89.600 126.489,89.600 125.600 C 89.600 124.711,90.133 124.000,90.800 124.000 C 91.467 124.000,92.000 124.711,92.000 125.600 M87.421 132.042 C 86.683 134.865,85.600 134.572,85.600 131.549 C 85.600 129.119,85.795 128.766,86.717 129.531 C 87.332 130.042,87.649 131.171,87.421 132.042 M35.466 136.679 C 35.392 139.460,35.102 141.964,34.822 142.244 C 33.872 143.194,32.754 140.412,33.171 138.135 C 33.400 136.888,33.213 135.171,32.756 134.318 C 31.747 132.433,32.475 131.020,34.275 131.367 C 35.359 131.576,35.576 132.541,35.466 136.679 M358.400 136.984 C 358.400 139.748,358.233 140.057,357.200 139.200 C 356.540 138.652,356.000 136.999,356.000 135.527 C 356.000 133.476,356.281 132.958,357.200 133.311 C 357.991 133.614,358.400 134.866,358.400 136.984 M83.200 138.335 C 83.200 140.598,82.335 142.454,81.516 141.948 C 80.683 141.433,80.551 138.115,81.333 137.333 C 82.334 136.333,83.200 136.797,83.200 138.335 M31.318 149.213 C 30.853 157.081,29.247 157.674,28.571 150.226 C 28.071 144.711,28.330 143.791,30.275 144.168 C 31.371 144.381,31.551 145.251,31.318 149.213 M79.200 148.000 C 79.200 150.311,78.867 151.200,78.000 151.200 C 76.531 151.200,76.353 147.167,77.760 145.760 C 79.142 144.378,79.200 144.468,79.200 148.000 M74.568 159.751 C 74.605 161.055,74.265 162.783,73.813 163.591 C 72.615 165.732,71.664 162.440,72.380 158.626 C 73.003 155.303,74.463 156.054,74.568 159.751 M26.095 157.412 C 27.689 158.459,27.259 234.400,25.659 234.400 C 24.532 234.400,24.396 230.552,24.360 197.800 C 24.338 177.670,24.029 160.210,23.674 159.000 C 23.011 156.748,24.048 156.068,26.095 157.412 M304.671 167.789 C 301.618 167.982,299.995 168.460,299.689 169.256 C 299.327 170.199,299.544 170.272,300.765 169.619 C 301.607 169.168,303.737 168.800,305.500 168.800 C 307.263 168.800,308.928 168.440,309.200 168.000 C 309.472 167.560,309.583 167.268,309.447 167.351 C 309.311 167.434,307.162 167.631,304.671 167.789 M296.353 170.775 C 295.499 171.421,293.873 171.961,292.739 171.975 C 291.606 171.989,289.845 172.888,288.825 173.973 C 287.429 175.460,285.798 176.079,282.215 176.485 C 278.948 176.854,276.755 177.614,275.214 178.911 C 273.406 180.433,272.044 180.800,268.213 180.800 C 263.916 180.800,263.369 180.993,262.546 182.800 C 261.761 184.523,261.078 184.814,257.617 184.900 C 251.973 185.041,251.773 185.082,251.400 186.200 C 251.000 187.399,251.163 187.409,255.446 186.446 C 257.291 186.032,259.790 185.485,261.000 185.231 C 262.210 184.977,263.200 184.281,263.200 183.685 C 263.200 182.475,266.601 181.600,271.305 181.600 C 273.621 181.600,274.853 181.091,276.150 179.600 C 277.601 177.931,278.599 177.600,282.182 177.600 C 285.694 177.600,286.802 177.248,288.266 175.668 C 289.251 174.606,291.370 173.490,292.976 173.189 C 294.582 172.888,296.515 171.957,297.272 171.121 C 298.914 169.306,298.501 169.150,296.353 170.775 M70.400 175.936 C 70.400 183.018,69.455 188.941,68.730 186.400 C 67.992 183.814,67.859 176.103,68.497 172.913 C 69.275 169.023,70.400 170.810,70.400 175.936 M293.623 175.969 C 292.976 176.378,292.697 176.964,293.004 177.271 C 293.310 177.577,294.027 177.441,294.596 176.969 C 295.166 176.497,297.244 175.968,299.216 175.795 L 302.800 175.480 298.800 175.352 C 296.600 175.282,294.270 175.559,293.623 175.969 M281.666 179.845 C 281.042 180.053,279.768 181.111,278.834 182.196 C 277.384 183.882,276.470 184.162,272.565 184.115 C 268.540 184.067,267.704 184.343,265.569 186.430 C 263.481 188.471,262.539 188.800,258.779 188.800 C 255.260 188.800,254.218 189.114,253.407 190.420 C 252.816 191.371,251.167 192.238,249.415 192.520 C 246.678 192.960,243.368 195.200,245.455 195.200 C 245.923 195.200,246.499 194.887,246.735 194.505 C 246.971 194.123,248.588 193.582,250.329 193.304 C 252.518 192.954,253.649 192.306,254.000 191.199 C 254.467 189.728,259.398 188.931,264.463 189.509 C 264.937 189.563,265.808 188.706,266.398 187.604 C 267.301 185.917,268.083 185.584,271.335 185.500 C 276.437 185.368,275.981 185.515,279.398 182.904 C 281.405 181.371,283.031 180.734,284.314 180.979 C 285.369 181.181,287.022 180.923,287.988 180.406 C 289.838 179.416,284.401 178.933,281.666 179.845 M248.447 188.425 C 247.588 189.075,245.197 189.600,243.094 189.600 C 241.004 189.600,239.091 189.928,238.843 190.330 C 238.595 190.731,239.024 190.939,239.796 190.791 C 240.568 190.643,242.823 190.495,244.808 190.461 C 247.506 190.415,248.667 189.997,249.414 188.800 C 250.594 186.911,250.498 186.874,248.447 188.425 M235.200 192.753 C 235.200 193.219,234.103 193.600,232.762 193.600 C 231.189 193.600,229.666 194.310,228.470 195.600 C 226.946 197.244,225.869 197.600,222.414 197.600 C 218.892 197.600,217.772 197.986,215.498 199.982 C 213.401 201.823,212.014 202.365,209.392 202.367 C 207.527 202.368,205.460 202.458,204.800 202.568 C 203.122 202.846,198.997 207.200,200.411 207.200 C 201.021 207.200,201.808 206.713,202.160 206.117 C 203.185 204.381,205.712 203.461,209.954 203.280 C 212.936 203.152,214.388 202.630,215.863 201.155 C 216.938 200.080,218.399 199.164,219.109 199.121 C 225.731 198.713,227.213 198.314,229.094 196.433 C 230.212 195.315,231.954 194.394,232.964 194.388 C 235.381 194.372,237.283 193.193,236.085 192.453 C 235.598 192.152,235.200 192.287,235.200 192.753 M236.400 196.571 C 233.109 197.361,233.109 198.622,236.400 198.113 C 238.160 197.841,240.290 197.614,241.133 197.609 C 241.977 197.604,242.413 197.346,242.103 197.036 C 241.381 196.315,238.460 196.076,236.400 196.571 M218.550 203.600 C 217.102 205.264,216.097 205.600,212.558 205.600 C 209.916 205.600,207.718 206.070,206.753 206.841 C 205.248 208.044,205.258 208.067,207.049 207.572 C 208.066 207.291,210.238 206.961,211.877 206.839 C 216.547 206.491,222.960 203.606,220.257 203.070 C 219.896 202.998,221.580 202.697,224.000 202.400 L 228.400 201.861 224.344 201.730 C 220.925 201.620,220.016 201.914,218.550 203.600 M190.222 208.416 C 189.245 209.712,187.785 210.294,184.795 210.581 C 180.151 211.027,177.721 212.497,181.956 212.298 C 185.693 212.122,190.174 210.543,190.680 209.223 C 190.912 208.619,191.934 207.999,192.951 207.846 C 194.684 207.585,194.699 207.538,193.179 207.105 C 192.076 206.791,191.132 207.209,190.222 208.416 M70.342 219.600 C 70.383 225.492,69.255 227.888,68.523 223.462 C 67.853 219.405,67.869 214.426,68.563 211.100 L 69.127 208.400 69.717 211.600 C 70.042 213.360,70.323 216.960,70.342 219.600 M201.200 209.727 C 199.880 210.109,198.005 210.233,197.034 210.004 C 195.790 209.710,194.542 210.297,192.807 211.993 C 190.685 214.067,189.748 214.400,186.030 214.400 C 182.421 214.400,181.468 214.716,180.195 216.334 C 179.359 217.397,177.622 218.423,176.337 218.614 L 174.000 218.960 176.461 219.080 C 178.155 219.163,179.506 218.578,180.800 217.200 C 182.349 215.552,183.429 215.200,186.945 215.200 C 190.498 215.200,191.501 214.866,192.950 213.200 C 194.392 211.540,195.405 211.200,198.897 211.200 C 201.212 211.200,203.343 210.816,203.633 210.347 C 204.410 209.089,203.875 208.952,201.200 209.727 M174.400 214.506 C 172.860 215.286,171.060 215.947,170.400 215.975 C 169.006 216.036,164.991 220.000,166.324 220.000 C 166.814 220.000,167.832 219.280,168.586 218.400 C 169.339 217.520,170.866 216.788,171.978 216.773 C 173.775 216.750,178.311 213.924,177.513 213.325 C 177.341 213.195,175.940 213.727,174.400 214.506 M157.909 219.771 C 156.255 219.979,155.130 220.717,154.561 221.967 C 153.798 223.641,153.232 223.828,149.452 223.657 C 145.624 223.484,144.972 223.708,142.917 225.905 C 140.897 228.065,140.138 228.339,136.317 228.284 C 133.943 228.249,132.000 228.552,132.000 228.957 C 132.000 230.733,140.964 229.244,142.571 227.200 C 143.889 225.525,144.849 225.190,148.486 225.137 C 152.068 225.084,153.223 224.694,155.092 222.903 C 156.806 221.261,158.263 220.692,161.078 220.566 C 163.123 220.475,164.798 220.130,164.799 219.800 C 164.800 219.197,162.530 219.187,157.909 219.771 M161.000 223.320 C 159.570 223.719,158.400 224.395,158.400 224.823 C 158.400 225.250,158.014 225.600,157.543 225.600 C 157.071 225.600,156.146 226.140,155.486 226.800 C 154.498 227.788,154.483 228.000,155.403 228.000 C 156.018 228.000,157.367 227.100,158.400 226.000 C 159.901 224.403,161.056 224.000,164.139 224.000 C 166.263 224.000,167.999 223.730,167.998 223.400 C 167.996 222.525,164.010 222.480,161.000 223.320 M148.800 227.507 C 148.800 227.675,149.700 227.986,150.800 228.196 C 151.900 228.406,152.800 228.268,152.800 227.889 C 152.800 227.510,151.900 227.200,150.800 227.200 C 149.700 227.200,148.800 227.338,148.800 227.507 M128.512 231.255 C 127.218 232.273,125.816 232.722,124.871 232.423 C 124.026 232.154,123.103 232.310,122.820 232.767 C 121.747 234.504,127.004 233.554,129.276 231.601 C 132.077 229.192,131.478 228.921,128.512 231.255 M144.000 230.800 C 142.624 231.587,142.406 231.952,143.302 231.972 C 144.018 231.987,145.052 231.460,145.600 230.800 C 146.818 229.332,146.567 229.332,144.000 230.800 M74.332 236.400 C 74.407 240.496,73.050 241.448,72.423 237.739 C 71.743 233.712,72.649 229.808,73.662 232.400 C 74.006 233.280,74.307 235.080,74.332 236.400 M132.860 233.305 C 131.476 235.065,130.479 235.442,126.791 235.604 C 123.546 235.747,121.575 236.354,119.346 237.899 C 117.678 239.055,115.613 240.006,114.757 240.012 C 112.793 240.028,110.666 241.333,111.404 242.071 C 111.710 242.377,112.420 242.252,112.981 241.792 C 113.541 241.332,115.080 240.830,116.400 240.678 C 117.720 240.525,119.456 239.590,120.258 238.600 C 121.497 237.070,122.490 236.800,126.878 236.800 C 131.648 236.800,132.097 236.648,132.800 234.800 C 133.501 232.956,136.972 232.069,141.000 232.705 C 141.330 232.757,141.600 232.440,141.600 232.000 C 141.600 230.094,134.558 231.146,132.860 233.305 M31.200 244.067 C 31.200 249.523,30.951 251.251,30.200 251.002 C 28.580 250.466,28.358 236.800,29.969 236.800 C 30.987 236.800,31.200 238.059,31.200 244.067 M108.077 238.743 C 106.629 239.811,103.949 240.936,102.122 241.241 C 97.272 242.051,96.083 244.871,100.647 244.737 C 101.831 244.702,102.350 244.492,101.800 244.270 C 99.942 243.520,100.784 242.400,103.207 242.400 C 104.687 242.400,106.543 241.572,108.027 240.250 C 109.354 239.068,111.151 238.048,112.019 237.984 C 114.393 237.809,114.964 236.800,112.689 236.800 C 111.601 236.800,109.526 237.674,108.077 238.743 M79.200 246.859 C 79.200 249.485,76.524 249.251,76.144 246.592 C 75.950 245.231,76.287 244.800,77.544 244.800 C 78.790 244.800,79.200 245.310,79.200 246.859 M35.200 256.800 C 35.200 258.560,34.840 260.000,34.400 260.000 C 33.960 260.000,33.600 258.560,33.600 256.800 C 33.600 255.040,33.960 253.600,34.400 253.600 C 34.840 253.600,35.200 255.040,35.200 256.800 " stroke="none" fill="#ffa043" fill-rule="evenodd"></path></g></svg>