<?xml version="1.0" encoding="utf-8"?>
<!-- Generator: Adobe Illustrator 16.0.3, SVG Export Plug-In . SVG Version: 6.00 Build 0)  -->
<!DOCTYPE svg PUBLIC "-//W3C//DTD SVG 1.1//EN" "http://www.w3.org/Graphics/SVG/1.1/DTD/svg11.dtd" [
	<!ENTITY ns_extend "http://ns.adobe.com/Extensibility/1.0/">
	<!ENTITY ns_ai "http://ns.adobe.com/AdobeIllustrator/10.0/">
	<!ENTITY ns_graphs "http://ns.adobe.com/Graphs/1.0/">
	<!ENTITY ns_vars "http://ns.adobe.com/Variables/1.0/">
	<!ENTITY ns_imrep "http://ns.adobe.com/ImageReplacement/1.0/">
	<!ENTITY ns_sfw "http://ns.adobe.com/SaveForWeb/1.0/">
	<!ENTITY ns_custom "http://ns.adobe.com/GenericCustomNamespace/1.0/">
	<!ENTITY ns_adobe_xpath "http://ns.adobe.com/XPath/1.0/">
]>
<svg version="1.1" id="Layer_1" xmlns:x="&ns_extend;" xmlns:i="&ns_ai;" xmlns:graph="&ns_graphs;"
	 xmlns="http://www.w3.org/2000/svg" xmlns:xlink="http://www.w3.org/1999/xlink" x="0px" y="0px" width="128.326px"
	 height="112.292px" viewBox="0 0 128.326 112.292" enable-background="new 0 0 128.326 112.292" xml:space="preserve">
<metadata>
	<sfw  xmlns="&ns_sfw;">
		<slices></slices>
		<sliceSourceBounds  height="112.292" width="128.325" x="0" y="0" bottomLeftOrigin="true"></sliceSourceBounds>
	</sfw>
</metadata>
<g>
	<path fill="#FFFFFF" d="M0,35.836c0.821-0.688,1.558-1.527,2.477-2.04c10.092-5.634,20.21-11.223,30.327-16.813
		C41.969,11.92,51.141,6.872,60.309,1.816c0.866-0.478,1.729-0.959,2.584-1.456c0.81-0.47,1.596-0.482,2.423-0.023
		c5.548,3.079,11.101,6.148,16.654,9.216c5.045,2.786,10.096,5.56,15.139,8.35c5.072,2.807,10.134,5.633,15.207,8.438
		c4.417,2.442,8.852,4.852,13.261,7.307c1.026,0.572,2.189,1.013,2.748,2.188v1.23c-0.657,1.252-1.746,1.546-3.079,1.546
		c-40.759-0.015-81.518-0.015-122.277,0.002c-1.31,0.001-2.335-0.35-2.969-1.548C0,36.656,0,36.246,0,35.836 M72.864,22.331
		c0.045-4.722-3.929-8.725-8.706-8.769c-4.697-0.044-8.76,4.011-8.758,8.74c0.003,4.701,3.909,8.63,8.675,8.725
		C68.765,31.12,72.819,27.109,72.864,22.331"/>
	<path fill="#FFFFFF" d="M64.104,112.288c-18.825,0-37.65,0-56.474-0.001c-0.376,0-0.754,0.012-1.126-0.027
		c-1.19-0.125-1.992-0.856-2.032-2.034c-0.064-1.842-0.062-3.688,0.001-5.529c0.038-1.124,0.732-1.801,1.849-1.981
		c0.402-0.064,0.817-0.055,1.226-0.056c37.753-0.002,75.505-0.002,113.257-0.001c2.379,0,3.049,0.67,3.052,3.036
		c0.002,1.399,0.021,2.801-0.007,4.201c-0.029,1.506-0.843,2.314-2.349,2.388c-0.341,0.017-0.684,0.005-1.025,0.005
		C101.685,112.288,82.895,112.288,64.104,112.288"/>
	<path fill="#FFFFFF" d="M64.115,100.421c-17.285,0-34.569,0-51.854,0c-2.378-0.001-3.033-0.66-3.036-3.053
		c-0.001-1.332-0.02-2.665,0.006-3.997c0.032-1.63,0.83-2.43,2.461-2.513c0.341-0.018,0.683-0.005,1.025-0.005
		c34.364,0,68.729-0.001,103.093,0c0.273,0,0.547-0.011,0.82,0.005c1.597,0.095,2.355,0.849,2.39,2.454
		c0.033,1.537,0.026,3.075,0.004,4.611c-0.024,1.731-0.784,2.484-2.542,2.49c-4.201,0.017-8.403,0.007-12.604,0.007
		C90.623,100.421,77.369,100.421,64.115,100.421"/>
	<path fill="#FFFFFF" d="M113.769,65.457c0,6.761,0.002,13.521-0.001,20.283c-0.001,2.201-0.746,2.938-2.971,2.941
		c-3.005,0.004-6.01,0.006-9.015-0.001c-2.113-0.005-2.88-0.732-2.882-2.814c-0.01-13.658-0.012-27.317-0.003-40.977
		c0.001-2.037,0.696-2.715,2.704-2.72c3.143-0.01,6.283-0.008,9.425-0.001c2.037,0.004,2.74,0.725,2.741,2.8
		C113.771,51.797,113.769,58.628,113.769,65.457"/>
	<path fill="#FFFFFF" d="M29.371,65.46c0,6.728,0.002,13.454-0.001,20.181c0,2.385-0.662,3.04-3.05,3.041
		c-2.936,0.001-5.873,0.004-8.809,0c-2.251-0.002-2.985-0.715-2.986-2.917c-0.003-13.59-0.004-27.181-0.001-40.771
		c0-2.152,0.665-2.82,2.807-2.825c3.141-0.007,6.283-0.01,9.424,0.001c1.89,0.007,2.609,0.713,2.612,2.597
		C29.376,51.665,29.371,58.562,29.371,65.46"/>
	<path fill="#FFFFFF" d="M71.569,65.457c0,6.696,0.002,13.392-0.001,20.088c-0.001,2.471-0.683,3.137-3.189,3.137
		c-2.938,0.001-5.876,0.006-8.815-0.001c-2.063-0.005-2.842-0.781-2.843-2.856c-0.004-13.632-0.004-27.263,0.001-40.894
		c0-2.088,0.684-2.758,2.772-2.762c3.075-0.005,6.15-0.005,9.225-0.001c2.205,0.003,2.848,0.65,2.849,2.894
		C71.572,51.86,71.569,58.658,71.569,65.457"/>
	<path fill="#FFFFFF" d="M64.109,17.958c2.399-0.011,4.362,1.937,4.366,4.331c0.003,2.387-1.977,4.361-4.358,4.347
		c-2.326-0.015-4.3-1.97-4.331-4.289C59.755,19.984,61.74,17.969,64.109,17.958"/>
</g>
</svg>
