<?xml version="1.0" encoding="utf-8"?>
<!-- Generator: Adobe Illustrator 16.0.0, SVG Export Plug-In . SVG Version: 6.00 Build 0)  -->
<!DOCTYPE svg PUBLIC "-//W3C//DTD SVG 1.1//EN" "http://www.w3.org/Graphics/SVG/1.1/DTD/svg11.dtd">
<svg version="1.1" id="Layer_1" xmlns="http://www.w3.org/2000/svg" xmlns:xlink="http://www.w3.org/1999/xlink" x="0px" y="0px"
	 width="186px" height="266.439px" viewBox="0 0 186 266.439" enable-background="new 0 0 186 266.439" xml:space="preserve">
<path fill="#FF7300" d="M93,0C41.64,0,0,41.64,0,93c0,20.54,6.66,39.52,17.94,54.91c0,0,73.56,117.97,75.06,118.529
	c1-0.561,75.061-118.529,75.061-118.529C179.34,132.52,186,113.54,186,93C186,41.64,144,0,93,0z M93,160.502
	c-36.727,0-66.5-29.772-66.5-66.5s29.773-66.5,66.5-66.5c36.727,0,66.5,29.772,66.5,66.5C159.5,130.729,129.727,160.502,93,160.502z
	"/>
<path opacity="0.5" fill="#FFFFFF" enable-background="new    " d="M182.443,67.532C171.291,28.552,135.23,0,93,0
	C41.64,0,0,41.64,0,93c0,13.219,2.758,25.791,7.731,37.177 M32.349,121.312c-3.758-8.332-5.849-17.577-5.849-27.311
	c0-36.728,29.773-66.5,66.5-66.5c30.764,0,56.648,20.89,64.244,49.259"/>
<ellipse fill="#FFFFFF" cx="93" cy="93.999" rx="66.5" ry="67"/>
<g display="none">
	<g display="inline">
		<g>
			<defs>
				<rect id="SVGID_1_" x="56.318" y="41.751" width="73.682" height="103.739"/>
			</defs>
			<clipPath id="SVGID_2_">
				<use xlink:href="#SVGID_1_"  overflow="visible"/>
			</clipPath>
			<path clip-path="url(#SVGID_2_)" fill="#41A6F8" d="M113.912,122.815c5.34,7.509,10.561,14.851,16.088,22.625
				c-3.166,0-5.84,0.115-8.491-0.076c-0.72-0.053-1.521-0.918-2.032-1.601c-3.145-4.197-6.158-8.495-9.363-12.645
				c-0.602-0.778-1.867-1.461-2.834-1.474c-9.395-0.108-18.791-0.116-28.184,0.007c-1.028,0.014-2.359,0.786-3.01,1.625
				c-3.162,4.076-6.187,8.262-9.155,12.482c-0.872,1.24-1.795,1.808-3.33,1.722c-2.244-0.125-4.5-0.03-7.281-0.03
				c5.521-7.766,10.737-15.103,16.102-22.646c-3.628-1.002-6.728-2.659-8.425-5.803c-1.164-2.155-2.17-4.72-2.2-7.114
				C61.602,94.4,61.658,78.91,61.715,63.421c0.027-7.004,5.731-12.833,13.023-12.943c12.27-0.186,24.547-0.189,36.817-0.002
				c7.588,0.116,13.066,6.064,13.077,13.676c0.021,14.729,0.007,29.455,0.005,44.184
				C124.634,115.939,121.49,120.292,113.912,122.815 M93.169,63.624v0.017c-5.665,0-11.331-0.081-16.994,0.025
				c-4.432,0.083-6.829,2.622-6.904,7.027c-0.035,2.028-0.009,4.059-0.007,6.088c0.006,6.342,2.152,8.497,8.538,8.507
				c10.231,0.014,20.462,0.011,30.692-0.009c1.094-0.002,2.205-0.062,3.275-0.266c3.23-0.614,5.178-2.896,5.266-6.182
				c0.064-2.451,0.021-4.904,0.015-7.356c-0.015-5.484-2.337-7.813-7.899-7.847C103.823,63.599,98.497,63.624,93.169,63.624
				 M93.168,53.053c-2.022,0-4.044-0.048-6.064,0.011c-2.626,0.079-3.093,0.769-3.08,4.282c0.01,3.074,0.487,3.707,3.065,3.743
				c3.453,0.047,6.907,0.014,10.36,0.013c4.726,0,4.957-0.304,4.885-5.006c-0.034-2.182-1.066-3.047-3.102-3.043
				C97.211,53.056,95.189,53.053,93.168,53.053 M110.6,104.288c-3.341,0.041-6.152,2.735-6.102,5.845
				c0.053,3.104,2.959,5.761,6.25,5.715c3.341-0.047,6.141-2.742,6.094-5.863C116.794,106.851,113.939,104.245,110.6,104.288
				 M81.615,110.067c0.004-3.214-2.696-5.771-6.101-5.778c-3.326-0.007-6.172,2.646-6.177,5.759
				c-0.004,3.108,2.842,5.788,6.156,5.797C78.868,115.853,81.609,113.267,81.615,110.067"/>
		</g>
	</g>
	<g display="inline">
		<g>
			<defs>
				<rect id="SVGID_3_" x="56.318" y="41.751" width="73.682" height="103.739"/>
			</defs>
			<clipPath id="SVGID_4_">
				<use xlink:href="#SVGID_3_"  overflow="visible"/>
			</clipPath>
			<path clip-path="url(#SVGID_4_)" fill="#41A6F8" d="M98.217,41.757c2.096-0.057,3.9,1.465,4.023,3.394
				c0.13,2.021-1.676,3.781-3.883,3.788c-2.164,0.006-3.805-1.498-3.842-3.521C94.477,43.384,96.062,41.816,98.217,41.757"/>
		</g>
	</g>
	<g display="inline">
		<g>
			<defs>
				<rect id="SVGID_5_" x="56.318" y="41.751" width="73.682" height="103.739"/>
			</defs>
			<clipPath id="SVGID_6_">
				<use xlink:href="#SVGID_5_"  overflow="visible"/>
			</clipPath>
			<path clip-path="url(#SVGID_6_)" fill="#41A6F8" d="M87.883,41.752c2.155-0.041,3.84,1.443,3.917,3.451
				c0.077,2.039-1.476,3.636-3.627,3.729c-2.207,0.098-4.081-1.538-4.092-3.57C84.069,43.417,85.781,41.792,87.883,41.752"/>
		</g>
	</g>
</g>
<g display="none">
	<g display="inline">
		<g>
			<defs>
				<rect id="SVGID_7_" x="55.16" y="43.246" width="75.611" height="102.191"/>
			</defs>
			<clipPath id="SVGID_8_">
				<use xlink:href="#SVGID_7_"  overflow="visible"/>
			</clipPath>
			<path clip-path="url(#SVGID_8_)" fill="#41A6F8" d="M69.508,84.974c0-1.314-0.161-2.653,0.027-3.939
				c1.45-9.968,6.832-16.956,16.355-20.271c4.316-1.503,9.024-2.478,13.514-0.61c2.41,1.004,4.461,2.852,6.709,4.265
				c2.111,1.325,4.141,2.889,6.425,3.806c5.802,2.33,11.351,1.035,16.66-1.825c0.388-0.21,0.78-0.413,1.177-0.607
				c0.05-0.025,0.13,0.012,0.396,0.043c-1.164,3.694-3.416,6.68-6.488,8.68c-3.088,2.008-6.879,2.725-10.481,1.637
				c-3.45-1.043-6.692-2.783-10.206-4.295c-1.121,3.169-2.121,6.662-3.566,9.961c-3.314,7.578-2.752,9.026,3.506,14.754
				c2.119,1.939,4.314,3.801,6.385,5.789c3.6,3.457,5.332,7.768,5.598,12.716c0.5,9.334,1.014,18.67,1.512,28.005
				c0.041,0.736,0.008,1.479-0.324,2.36c-1.352-2.706-2.658-5.437-4.066-8.113c-2.916-5.545-4.285-11.543-4.838-17.689
				c-0.512-5.688-4.127-8.889-8.354-11.847c-4.117-2.88-8.303-5.7-12.128-8.938c-1.273-1.076-1.927-3.304-2.168-5.099
				c-0.806-6.013,1.83-11.463,3.221-17.115c0.566-2.296,1.048-4.616,1.48-6.94c0.286-1.537-0.296-2.093-1.984-1.858
				c-6.772,0.938-10.857,5.259-13.964,10.847c-1.173,2.109-2.222,4.286-3.328,6.436C70.221,85.07,69.865,85.021,69.508,84.974"/>
		</g>
	</g>
	<g display="inline">
		<g>
			<defs>
				<rect id="SVGID_9_" x="55.16" y="43.246" width="75.611" height="102.191"/>
			</defs>
			<clipPath id="SVGID_10_">
				<use xlink:href="#SVGID_9_"  overflow="visible"/>
			</clipPath>
			<path clip-path="url(#SVGID_10_)" fill="#41A6F8" d="M55.16,104.122c10.177,1.228,18.037,5.877,25.554,12.285
				c1.27-6.07,2.398-11.473,3.628-17.354c3.007,2.688,5.799,5.134,8.51,7.67c0.305,0.286,0.329,1.137,0.167,1.619
				c-1.92,5.732-3.349,11.684-7.754,16.266c-2.159,2.245-5.206,2.86-7.797,1.141c-3.407-2.267-6.613-4.742-8.754-8.361
				c-0.438-0.739-1.209-1.288-1.859-1.889c-3.249-3.015-6.52-6.002-9.755-9.029C56.524,105.931,56.083,105.249,55.16,104.122"/>
		</g>
	</g>
	<g display="inline">
		<g>
			<defs>
				<rect id="SVGID_11_" x="55.16" y="43.246" width="75.611" height="102.191"/>
			</defs>
			<clipPath id="SVGID_12_">
				<use xlink:href="#SVGID_11_"  overflow="visible"/>
			</clipPath>
			<path clip-path="url(#SVGID_12_)" fill="#41A6F8" d="M107.876,49.552c-0.03,2.99-1.366,5.332-3.409,7.284
				c-1.748,1.67-4.087,1.42-5.676-0.443c-2.646-3.104-1.787-9.843,1.561-12.22c2.502-1.779,5.594-0.93,6.736,1.95
				C107.516,47.202,107.623,48.406,107.876,49.552"/>
		</g>
	</g>
</g>
<g display="none">
	<g display="inline">
		<g>
			<defs>
				<rect id="SVGID_13_" x="46.064" y="51.423" width="90.2" height="89.334"/>
			</defs>
			<clipPath id="SVGID_14_">
				<use xlink:href="#SVGID_13_"  overflow="visible"/>
			</clipPath>
			<path clip-path="url(#SVGID_14_)" fill="#41A6F8" d="M120.831,136.063c-0.543-0.954-1.004-1.682-1.39-2.449
				c-4.914-9.777-9.815-19.562-14.719-29.345c-1.055-2.104-2.104-4.209-3.156-6.313c-0.519-1.037-0.838-1.11-1.825-0.335
				c-5.804,4.557-11.6,9.118-17.397,13.681c-3.524,2.773-7.011,5.596-10.594,8.29c-1.042,0.784-1.077,1.424-0.533,2.472
				c2.031,3.904,3.994,7.847,6.005,11.764c0.355,0.689,0.425,1.208-0.213,1.815c-1.593,1.521-3.121,3.112-4.663,4.687
				c-0.561,0.571-0.901,0.639-1.326-0.206c-1.727-3.433-3.484-6.849-5.323-10.22c-0.532-0.976-1.373-1.784-2.178-2.802
				c-1.118,1.202-2.07,2.226-3.018,3.251c-0.181,0.196-0.343,0.409-0.521,0.607c-1.156,1.276-2.208,1.173-2.982-0.37
				c-0.123-0.245,0.099-0.791,0.327-1.058c1.036-1.219,2.145-2.375,3.201-3.578c0.818-0.934,0.767-1.199-0.388-1.742
				c-2.894-1.357-5.803-2.687-8.707-4.023c-1.584-0.731-3.157-1.494-4.76-2.187c-0.826-0.354-0.722-0.739-0.2-1.257
				c1.726-1.715,3.453-3.428,5.169-5.15c0.507-0.512,0.972-0.64,1.708-0.329c3.887,1.641,7.815,3.18,11.705,4.812
				c0.942,0.396,1.585,0.36,2.274-0.483c3.624-4.449,7.295-8.857,10.95-13.281c3.778-4.576,7.553-9.151,11.334-13.724
				c0.825-0.998,0.813-1.134-0.357-1.673c-9.223-4.239-18.446-8.478-27.671-12.71c-2.557-1.173-5.119-2.333-7.68-3.496
				c-0.644-0.293-0.826-0.671-0.219-1.187c2.665-2.266,5.32-4.544,8.018-6.771c0.295-0.245,0.86-0.328,1.26-0.257
				c6.838,1.197,13.667,2.45,20.503,3.654c4.729,0.833,9.467,1.599,14.194,2.426c2.854,0.5,5.692,1.101,8.551,1.563
				c0.513,0.082,1.222-0.137,1.629-0.471c6.562-5.375,13.078-10.804,19.638-16.18c0.553-0.452,1.31-0.743,2.018-0.9
				c1.936-0.432,3.9-0.735,5.847-1.125c0.755-0.151,1.032,0.125,0.886,0.838c-0.533,2.58-1.039,5.167-1.66,7.725
				c-0.14,0.576-0.67,1.076-1.078,1.563c-4.871,5.844-9.764,11.67-14.61,17.535c-0.313,0.38-0.479,1.072-0.394,1.562
				c0.578,3.301,1.238,6.587,1.882,9.874c0.834,4.265,1.678,8.526,2.516,12.792c0.955,4.861,1.912,9.727,2.86,14.59
				c0.604,3.1,1.203,6.197,1.773,9.303c0.057,0.305-0.004,0.735-0.19,0.963C125.24,130.771,123.12,133.306,120.831,136.063"/>
		</g>
	</g>
</g>
<g display="none">
	<g display="inline">
		<g>
			<defs>
				<rect id="SVGID_15_" x="50.274" y="46.054" width="84.492" height="96.446"/>
			</defs>
			<clipPath id="SVGID_16_">
				<use xlink:href="#SVGID_15_"  overflow="visible"/>
			</clipPath>
			<path clip-path="url(#SVGID_16_)" fill="#41A6F8" d="M60.979,54.737c3.518-7.354,7.875-7.379,15.926-0.283
				c1.986-2.272,3.764-4.785,6.014-6.763c3.277-2.879,6.545-1.881,8.557,2.356c-3.951,0.454-7.869,0.973-10.156,3.825
				c2.672,0.854,5.684,1.281,8.01,2.776c1.218,0.785,1.234,3.44,1.468,5.432c-3.453-1.71-6.185-4.744-10.731-3.272
				c6.635,10.948,7.547,23.146,8.661,35.75c3.313-2.439,6.131-4.602,9.038-6.638c8.137-5.7,8.346-5.836,14.48,1.786
				c7.217,8.968,14.059,18.235,21.045,27.389c0.529,0.692,0.921,1.491,1.473,2.396c-4.173,3.799-9.082,5.417-14.422,5.859
				c-6.814,0.566-13.48-0.406-20.023-2.31c-15.176-4.417-30.525-6.308-46.221-3.181c-0.263,0.052-0.561-0.069-1.728-0.237
				c1.102-2.203,1.657-4.547,3.111-5.979c3.516-3.465,7.336-6.652,11.269-9.645c1.699-1.293,2.948-2.581,2.335-4.613
				c-1.447-4.806-3.05-9.57-4.805-14.271c-0.695-1.862-2.26-1.176-3.019-0.051c-1.138,1.688-1.888,3.636-2.777,5.422
				c-2.474-2.386-2.097-5.005,1.249-9.226c-3.161,0.623-6.324,1.246-9.459,1.863c0.669-3.362,3.579-6.138,6.874-5.209
				c4.309,1.212,6.418-0.116,8.618-3.684c1.834-2.974,5.008-2.852,8.042-0.607c-2.288,1.313-4.574,2.625-6.858,3.937
				c0.008,0.244,0.016,0.489,0.024,0.732c3.008-0.339,6.011-0.669,7.869,3.162h-9.059c0.955,1.517,1.58,2.376,2.066,3.308
				c2.292,4.39,4.615,8.766,6.779,13.218c0.963,1.983,3.449,3.303,6.404,2.435c0.784-0.23,1.501-2.091,1.543-3.229
				c0.467-12.54-2.161-24.646-5.129-36.696c-3.441,0.556-3.46,0.573-9.45,8.458c-3.16-5.028-1.14-9.133,5.976-12.146
				C71.839,54.621,70.073,54.333,60.979,54.737"/>
		</g>
	</g>
	<g display="inline">
		<g>
			<defs>
				<rect id="SVGID_17_" x="50.274" y="46.054" width="84.492" height="96.446"/>
			</defs>
			<clipPath id="SVGID_18_">
				<use xlink:href="#SVGID_17_"  overflow="visible"/>
			</clipPath>
			<path clip-path="url(#SVGID_18_)" fill="#41A6F8" d="M121.793,95.236c-4.139-4.618-8.376-9.211-12.434-13.958
				c-1.496-1.749-2.787-2.21-4.741-0.837c-2.11,1.48-4.345,2.785-6.524,4.165c-2.773,1.755-4.187,1.194-4.884-1.933
				c-2.146-9.637,5.886-21.354,16.133-23.534c10.294-2.19,20.155,4.204,22.492,14.588C133.891,82.854,130.119,91.024,121.793,95.236
				"/>
		</g>
	</g>
	<g display="inline">
		<g>
			<defs>
				<rect id="SVGID_19_" x="50.274" y="46.054" width="84.492" height="96.446"/>
			</defs>
			<clipPath id="SVGID_20_">
				<use xlink:href="#SVGID_19_"  overflow="visible"/>
			</clipPath>
			<path clip-path="url(#SVGID_20_)" fill="#41A6F8" d="M57.794,125.455c7.022-3.055,14.193-3.271,21.361-0.54
				c2.853,1.086,5.695,2.459,8.178,4.216c9.583,6.778,19.712,7.117,30.321,3.063c2.195-0.839,4.328-1.837,6.726-2.862
				c-2.868,6.042-11.669,11.618-19.649,12.77c-10.926,1.579-20.871-1.748-30.458-6.333c-5.768-2.759-11.241-6.136-16.847-9.232
				C57.55,126.176,57.673,125.814,57.794,125.455"/>
		</g>
	</g>
</g>
<g display="none">
	<path display="inline" fill="#41A6F8" d="M111.123,120.605c-10.393,2.017-13.711,6.183-11.686,14.798
		c-7.207,2.592-14.569,2.404-21.819,0.658c-19.651-4.732-34.199-23.022-32.623-45.409c1.348-19.194,17.387-36.358,37.112-38.887
		c26.045-3.338,49.034,17.339,48.5,43.526c-0.06,2.896-0.635,4.473-3.998,4.555c-3.496,0.086-6.965,0.938-10.459,1.345
		c-3.467,0.403-4.967,2.472-5.014,5.742C111.074,111.395,111.123,115.854,111.123,120.605 M100.652,94.502
		c0.046-7.401-5.726-13.256-13.021-13.206c-7.008,0.049-12.974,5.964-13.058,12.946c-0.085,7.139,6.048,13.267,13.202,13.188
		C94.98,107.354,100.607,101.707,100.652,94.502 M53.261,79.975c6.254,1.679,12.292,3.298,17.375,4.662
		c2.432-2.115,4.339-3.625,6.044-5.338c0.621-0.623,1.226-1.838,1.044-2.591c-1.335-5.551-2.87-11.053-4.413-16.829
		C63.895,64.153,57.393,70.604,53.261,79.975"/>
	<path display="inline" fill="#41A6F8" d="M115.312,124.758c0-4.792,0.16-10.201-0.067-15.592c-0.114-2.692,0.562-3.886,3.387-4.171
		c7.113-0.717,14.2-1.704,21.78-2.643c0.188,1.315,0.48,2.444,0.486,3.571c0.035,6.911-0.08,13.823,0.029,20.732
		c0.059,3.578-1.314,6.005-4.71,7.182c-3.782,1.309-7.311,0.82-10.071-2.176c-2.963-3.219-0.763-8.043,4.172-8.984
		c2.078-0.396,4.293-0.066,6.715-0.066v-13.215c-5.596,0.664-11.165,1.22-16.676,2.12c-0.66,0.107-1.403,2.087-1.439,3.22
		c-0.159,5.01-0.15,10.027-0.051,15.039c0.072,3.645-1.635,5.882-4.969,7.01c-3.494,1.182-8.149-0.022-10.031-2.546
		c-1.989-2.666-1.23-6.345,2.186-7.755C108.648,125.415,111.678,125.389,115.312,124.758 M133.743,125.462
		c-0.072-0.377-0.146-0.753-0.218-1.131c-1.767,0.486-3.676,0.716-5.243,1.569c-0.808,0.441-1.013,1.993-1.927,3.999
		C129.66,127.915,131.701,126.689,133.743,125.462 M104.68,131.706c0.334,0.069,0.67,0.142,1.006,0.214
		c2.029-1.238,4.06-2.476,6.088-3.712c-0.084-0.349-0.172-0.694-0.258-1.041c-1.725,0.432-3.604,0.579-5.113,1.407
		C105.521,129.057,105.234,130.625,104.68,131.706"/>
	<path display="inline" fill="#41A6F8" d="M133.744,125.462c-2.043,1.228-4.084,2.456-7.389,4.438
		c0.914-2.005,1.119-3.558,1.929-3.999c1.567-0.854,3.476-1.083,5.243-1.569C133.6,124.709,133.671,125.085,133.744,125.462"/>
	<path display="inline" fill="#41A6F8" d="M104.68,131.706c0.555-1.081,0.842-2.649,1.723-3.133c1.51-0.828,3.389-0.976,5.113-1.408
		c0.086,0.349,0.174,0.694,0.258,1.042c-2.028,1.235-4.059,2.474-6.088,3.71C105.35,131.848,105.016,131.776,104.68,131.706"/>
	<path display="inline" fill="#41A6F8" d="M87.846,98.734c-1.486-2.067-2.979-3.262-2.808-4.125c0.233-1.171,1.603-2.61,2.753-2.916
		c0.686-0.179,2.611,1.562,2.668,2.515C90.524,95.345,89.187,96.563,87.846,98.734"/>
</g>
<g display="none">
	<path display="inline" fill="#41A6F8" d="M47.775,77.18c0.577-0.481,1.095-1.073,1.74-1.434c7.091-3.957,14.201-7.886,21.31-11.813
		c6.44-3.558,12.884-7.104,19.326-10.656c0.608-0.337,1.214-0.675,1.815-1.023c0.569-0.329,1.121-0.339,1.702-0.018
		c3.898,2.164,7.801,4.32,11.702,6.478c3.545,1.956,7.094,3.906,10.638,5.866c3.562,1.973,7.121,3.958,10.686,5.929
		c3.104,1.716,6.22,3.41,9.318,5.135c0.721,0.4,1.538,0.711,1.932,1.537v0.864c-0.463,0.88-1.229,1.087-2.164,1.087
		c-28.639-0.012-57.277-0.012-85.917,0.001c-0.919,0.001-1.641-0.246-2.086-1.088C47.775,77.756,47.775,77.468,47.775,77.18
		 M98.973,67.69c0.032-3.316-2.761-6.131-6.118-6.161c-3.3-0.031-6.155,2.819-6.153,6.142c0.002,3.302,2.747,6.062,6.095,6.131
		C96.092,73.867,98.941,71.048,98.973,67.69"/>
	<path display="inline" fill="#41A6F8" d="M92.817,130.899c-13.228,0-26.455,0-39.681-0.002c-0.264,0-0.529,0.009-0.79-0.02
		c-0.837-0.088-1.4-0.602-1.428-1.429c-0.046-1.295-0.044-2.591,0-3.886c0.027-0.789,0.514-1.265,1.299-1.392
		c0.283-0.045,0.574-0.038,0.861-0.039c26.526-0.002,53.053-0.002,79.58,0c1.671,0,2.142,0.47,2.144,2.132
		c0.001,0.983,0.015,1.968-0.004,2.952c-0.021,1.059-0.593,1.627-1.651,1.678c-0.238,0.013-0.479,0.004-0.72,0.004
		C119.223,130.899,106.021,130.899,92.817,130.899"/>
	<path display="inline" fill="#41A6F8" d="M92.825,122.562c-12.145,0-24.29,0-36.434,0c-1.671-0.002-2.132-0.465-2.134-2.146
		c0-0.938-0.014-1.874,0.004-2.812c0.022-1.144,0.583-1.706,1.729-1.766c0.239-0.011,0.479-0.003,0.72-0.003
		c24.146,0,48.292-0.001,72.437,0c0.192,0,0.385-0.008,0.578,0.003c1.123,0.067,1.654,0.597,1.68,1.726
		c0.022,1.079,0.018,2.16,0.002,3.239c-0.018,1.216-0.551,1.745-1.787,1.75c-2.951,0.011-5.903,0.005-8.855,0.005
		C111.451,122.562,102.139,122.562,92.825,122.562"/>
	<path display="inline" fill="#41A6F8" d="M127.714,97.992c0,4.752,0.001,9.502,0,14.252c-0.001,1.547-0.524,2.064-2.088,2.065
		c-2.11,0.003-4.222,0.004-6.334,0c-1.483-0.003-2.024-0.515-2.024-1.977c-0.008-9.599-0.009-19.195-0.002-28.794
		c0-1.432,0.488-1.907,1.899-1.911c2.209-0.006,4.415-0.004,6.623-0.001c1.433,0.004,1.925,0.511,1.925,1.969
		C127.715,88.395,127.714,93.194,127.714,97.992"/>
	<path display="inline" fill="#41A6F8" d="M68.413,97.995c0,4.727,0.001,9.453,0,14.181c0,1.674-0.465,2.135-2.143,2.135
		c-2.063,0.002-4.126,0.003-6.19,0c-1.582,0-2.098-0.502-2.098-2.048c-0.002-9.55-0.003-19.099,0-28.646
		c0-1.513,0.467-1.982,1.972-1.986c2.208-0.004,4.415-0.006,6.621,0.001c1.329,0.005,1.834,0.501,1.835,1.826
		C68.417,88.303,68.413,93.148,68.413,97.995"/>
	<path display="inline" fill="#41A6F8" d="M98.062,97.992c0,4.706,0.002,9.41,0,14.114c0,1.736-0.48,2.203-2.242,2.203
		c-2.064,0.002-4.127,0.004-6.193,0c-1.45-0.003-1.996-0.548-1.997-2.006c-0.003-9.579-0.003-19.156,0.001-28.735
		c0-1.466,0.48-1.937,1.947-1.939c2.161-0.002,4.32-0.002,6.482-0.001c1.549,0.003,2.002,0.459,2.002,2.035
		C98.064,88.438,98.062,93.216,98.062,97.992"/>
	<path display="inline" fill="#41A6F8" d="M92.821,64.619c1.685-0.009,3.066,1.359,3.068,3.043c0.002,1.677-1.39,3.063-3.062,3.054
		c-1.634-0.011-3.021-1.384-3.043-3.014C89.762,66.042,91.156,64.625,92.821,64.619"/>
</g>
<g display="none">
	<g display="inline">
		<g>
			<defs>
				<rect id="SVGID_21_" x="56.574" y="46.5" width="71.615" height="92.433"/>
			</defs>
			<clipPath id="SVGID_22_">
				<use xlink:href="#SVGID_21_"  overflow="visible"/>
			</clipPath>
			<path clip-path="url(#SVGID_22_)" fill="#41A6F8" d="M118.8,127.953c1.168,0.21,3.001,0.028,4.066,0.847
				c2.009,1.544,3.575,3.663,5.325,5.542c-2.133,1.471-4.219,4.119-6.408,4.211c-10.913,0.45-21.855,0.236-32.787,0.239
				c-7.395,0.001-14.833,0.438-22.167-0.237c-3.519-0.325-6.842-2.776-10.254-4.262c2.608-2.524,5.215-5.053,7.823-7.577
				c5.768-5.416-4.806-19.658,12.548-19.413c0-14.24,0.31-27.729-0.101-41.195c-0.313-10.253,7.429-14.56,13.922-19.129
				c4.512-3.175,16.975,10.201,17.069,18.23c0.165,13.798,0.046,27.599,0.046,41.809C123.803,107.705,115.807,120.157,118.8,127.953
				"/>
		</g>
	</g>
</g>
<g display="none">
	<g display="inline">
		<g>
			<defs>
				<rect id="SVGID_23_" x="52.751" y="49.504" width="80.537" height="83.992"/>
			</defs>
			<clipPath id="SVGID_24_">
				<use xlink:href="#SVGID_23_"  overflow="visible"/>
			</clipPath>
			<path clip-path="url(#SVGID_24_)" fill="#41A6F8" d="M88.337,93.574c-1.783-1.965-3.718-3.793-5.293-5.892
				c-4.083-5.441-6.326-11.709-7.546-18.334c-0.541-2.936,0.771-4.747,3.234-5.067c2.261-0.295,3.823,1.221,4.465,3.958
				c0.945,4.033,1.68,8.181,3.225,11.986c1.21,2.981,3.469,5.551,5.359,8.232c0.551,0.782,1.425,1.304,2.285,0.169
				c3.658-4.828,7.211-9.71,8.067-15.947c0.234-1.704,0.257-3.445,0.585-5.127c0.477-2.441,2.381-3.664,4.737-3.246
				c2.11,0.373,3.11,2.033,2.839,4.545c-1.009,9.315-5.331,16.966-11.777,23.559c-0.303,0.307-0.625,0.594-0.918,0.907
				c-0.09,0.097-0.106,0.26-0.172,0.428c4.367,4.428,10.746,6.22,15.211,11.353c-0.904,0.184-1.438,0.451-1.896,0.356
				c-6.097-1.271-11.873-3.264-16.699-7.435c-0.405-0.35-1.463-0.399-1.942-0.119c-1.977,1.159-3.727,2.764-5.786,3.711
				c-2.637,1.216-5.463,2.061-8.27,2.84c-0.811,0.225-1.836-0.322-3.334-0.636C78.704,99.046,84.741,98.044,88.337,93.574"/>
		</g>
	</g>
	<g display="inline">
		<g>
			<defs>
				<rect id="SVGID_25_" x="52.751" y="49.504" width="80.537" height="83.992"/>
			</defs>
			<clipPath id="SVGID_26_">
				<use xlink:href="#SVGID_25_"  overflow="visible"/>
			</clipPath>
			<path clip-path="url(#SVGID_26_)" fill="#41A6F8" d="M81.257,112.1c1.174,2.993,2.285,5.819,3.508,8.936
				c-5.004,1.504-10.292,3.094-15.58,4.683c10.963,0.203,21.902-2.556,32.801-0.012c0.017,0.218,0.033,0.437,0.051,0.652
				c-1.489,0.233-3.002,0.368-4.461,0.726c-3.821,0.931-7.703,1.718-11.412,2.997c-9.22,3.18-18.553,4.594-28.146,2.246
				c-1.876-0.46-3.518-1.875-5.268-2.852c1.22-1.427,2.199-3.209,3.701-4.209c4.531-3.019,9.304-5.668,13.906-8.581
				C73.847,114.478,77.521,112.828,81.257,112.1"/>
		</g>
	</g>
	<g display="inline">
		<g>
			<defs>
				<rect id="SVGID_27_" x="52.751" y="49.504" width="80.537" height="83.992"/>
			</defs>
			<clipPath id="SVGID_28_">
				<use xlink:href="#SVGID_27_"  overflow="visible"/>
			</clipPath>
			<path clip-path="url(#SVGID_28_)" fill="#41A6F8" d="M88.943,132.066c8.227-5.269,17.614-4.71,26.743-6.312
				c-5.18-1.196-10.361-2.395-16.067-3.711c2.956-2.849,3.315-6.36,3.213-10.354c2.101,0.717,4.063,1.141,5.795,2.021
				c6.767,3.436,13.476,6.989,20.171,10.565c1.189,0.636,2.293,1.495,3.305,2.398c1.629,1.454,1.637,3.077-0.341,3.962
				c-2.362,1.058-4.997,1.938-7.549,2.049c-4.001,0.174-8.028-0.502-12.05-0.568c-6.973-0.117-13.949-0.046-20.923-0.052
				C90.474,132.065,89.708,132.066,88.943,132.066"/>
		</g>
	</g>
	<g display="inline">
		<g>
			<defs>
				<rect id="SVGID_29_" x="52.751" y="49.504" width="80.537" height="83.992"/>
			</defs>
			<clipPath id="SVGID_30_">
				<use xlink:href="#SVGID_29_"  overflow="visible"/>
			</clipPath>
			<path clip-path="url(#SVGID_30_)" fill="#41A6F8" d="M100.26,111.325c-0.492,3.266-0.832,6.946-3.779,9.659
				c-1.746,1.606-3.396,1.874-5.5,0.737c-4.973-2.679-7.783-9.491-4.228-14.924c1.875-2.865,4.968-2.903,7.947-2.474
				C98.57,104.886,100.27,107.04,100.26,111.325"/>
		</g>
	</g>
	<g display="inline">
		<g>
			<defs>
				<rect id="SVGID_31_" x="52.751" y="49.504" width="80.537" height="83.992"/>
			</defs>
			<clipPath id="SVGID_32_">
				<use xlink:href="#SVGID_31_"  overflow="visible"/>
			</clipPath>
			<path clip-path="url(#SVGID_32_)" fill="#41A6F8" d="M92.158,49.505c4,0.025,6.826,3.391,6.756,8.044
				c-0.068,4.586-3.086,8.032-6.983,7.954c-4.503-0.091-6.59-2.856-6.563-8.065C85.396,51.985,87.324,49.438,92.158,49.505"/>
		</g>
	</g>
</g>
<g>
	<g>
		<g>
			<defs>
				<rect id="SVGID_33_" x="59.476" y="42.605" width="66.221" height="102.788"/>
			</defs>
			<clipPath id="SVGID_34_">
				<use xlink:href="#SVGID_33_"  overflow="visible"/>
			</clipPath>
			<path clip-path="url(#SVGID_34_)" fill="#41A6F8" d="M77.591,94.073c0,15.761,0.024,31.52-0.045,47.278
				c-0.005,1.17-0.498,3.24-1.057,3.346c-2.114,0.399-4.378,0.354-6.516,0.018c-0.482-0.076-0.959-1.98-0.965-3.044
				c-0.067-12.539-0.043-25.077-0.041-37.616c0-3.023,0.003-3.025-3.008-3.037c-1.165-0.006-2.33,0.021-3.494-0.014
				c-1.852-0.055-3.021-1.078-2.989-2.893c0.073-3.958,0.158-7.925,0.474-11.869c0.396-4.957,0.856-9.922,1.603-14.833
				c1.111-7.298,2.514-14.566,5.755-21.282c0.966-2.002,2.378-3.827,3.802-5.554c0.65-0.789,1.77-1.306,2.775-1.66
				c2.415-0.854,3.678,0.076,3.685,2.647c0.023,10.348,0.016,20.694,0.019,31.042C77.591,82.425,77.59,88.249,77.591,94.073"/>
		</g>
	</g>
	<g>
		<g>
			<defs>
				<rect id="SVGID_35_" x="59.476" y="42.605" width="66.221" height="102.788"/>
			</defs>
			<clipPath id="SVGID_36_">
				<use xlink:href="#SVGID_35_"  overflow="visible"/>
			</clipPath>
			<path clip-path="url(#SVGID_36_)" fill="#41A6F8" d="M111.602,112.449c0-9.179-0.035-18.358,0.028-27.535
				c0.015-1.854-0.233-2.914-2.5-2.876c-2.188,0.035-3.647-1.646-3.627-3.917c0.075-8.341,0.246-16.685,0.368-25.025
				c0.036-2.465,0.025-4.932,0.041-7.396c0.003-0.549-0.139-1.176,0.08-1.624c0.258-0.529,0.832-0.906,1.27-1.349
				c0.354,0.442,0.975,0.862,1.016,1.33c0.149,1.702,0.123,3.42,0.125,5.133c0.008,3.013-0.068,6.029-0.004,9.041
				c0.08,3.821,0.229,7.644,0.449,11.458c0.029,0.519,0.629,1.006,0.965,1.508c0.347-0.545,0.975-1.079,0.992-1.633
				c0.203-6.627,0.295-13.259,0.469-19.888c0.049-1.834,0.192-3.676,0.455-5.493c0.076-0.519,0.719-0.955,1.104-1.429
				c0.299,0.525,0.84,1.046,0.855,1.582c0.195,6.693,0.293,13.392,0.467,20.086c0.049,1.838,0.205,3.678,0.449,5.5
				c0.063,0.47,0.651,0.87,0.998,1.302c0.33-0.446,0.685-0.877,0.976-1.345c0.093-0.149,0.021-0.403,0.024-0.608
				c0.141-7.932,0.279-15.863,0.422-23.795c0.012-0.547-0.109-1.178,0.121-1.615c0.248-0.472,0.84-0.764,1.28-1.134
				c0.343,0.435,0.728,0.847,1.011,1.317c0.121,0.204,0.033,0.536,0.039,0.81c0.139,7.933,0.277,15.865,0.416,23.796
				c0.008,0.41-0.121,0.912,0.065,1.213c0.319,0.516,0.837,0.907,1.272,1.352c0.346-0.446,0.937-0.864,0.989-1.344
				c0.163-1.423,0.117-2.87,0.148-4.311c0.147-6.835,0.293-13.67,0.442-20.508c0.01-0.409-0.066-0.885,0.113-1.212
				c0.232-0.425,0.682-0.735,1.039-1.094c0.283,0.394,0.762,0.764,0.814,1.186c0.225,1.754,0.408,3.522,0.442,5.288
				c0.188,9.165,0.341,18.331,0.474,27.497c0.055,3.894-0.801,4.784-4.721,5.48c-0.517,0.092-1.162,0.837-1.298,1.39
				c-0.224,0.906-0.087,1.902-0.087,2.862c0,17.604,0.003,35.208,0.005,52.812c0,0.48,0.005,0.958-0.01,1.438
				c-0.082,2.691-1.849,4.68-4.165,4.691c-1.969,0.011-3.729-2.099-3.811-4.586c-0.024-0.751-0.016-1.506-0.016-2.26
				c-0.001-8.698-0.001-17.398-0.001-26.098L111.602,112.449L111.602,112.449z"/>
		</g>
	</g>
</g>
</svg>
