<?xml version="1.0" encoding="utf-8"?>
<!-- Generator: Adobe Illustrator 16.0.0, SVG Export Plug-In . SVG Version: 6.00 Build 0)  -->
<!DOCTYPE svg PUBLIC "-//W3C//DTD SVG 1.1//EN" "http://www.w3.org/Graphics/SVG/1.1/DTD/svg11.dtd">
<svg version="1.1" id="Layer_1" xmlns="http://www.w3.org/2000/svg" xmlns:xlink="http://www.w3.org/1999/xlink" x="0px" y="0px"
	 width="186px" height="266.439px" viewBox="0 0 186 266.439" enable-background="new 0 0 186 266.439" xml:space="preserve">
<g id="base">
	<path fill="#FF7300" d="M93,0C41.64,0,0,41.64,0,93c0,20.54,6.66,39.52,17.94,54.91c0,0,73.56,117.97,75.06,118.529
		c1-0.561,75.061-118.529,75.061-118.529C179.34,132.52,186,113.54,186,93C186,41.64,144,0,93,0z M93,160.502
		c-36.727,0-66.5-29.772-66.5-66.5s29.773-66.5,66.5-66.5c36.727,0,66.5,29.772,66.5,66.5C159.5,130.729,129.727,160.502,93,160.502
		z"/>
	<path opacity="0.5" fill="#FFFFFF" enable-background="new    " d="M182.443,67.532C171.291,28.552,135.23,0,93,0
		C41.64,0,0,41.64,0,93c0,13.219,2.758,25.791,7.731,37.177 M32.349,121.312c-3.758-8.332-5.849-17.577-5.849-27.311
		c0-36.728,29.773-66.5,66.5-66.5c30.764,0,56.648,20.89,64.244,49.259"/>
</g>
<ellipse fill="#FFFFFF" cx="92.393" cy="94.541" rx="66.5" ry="67"/>
<g id="icons">
	<g display="none">
		<g display="inline">
			<g>
				<defs>
					<rect id="SVGID_1_" x="62.679" y="39.5" width="57.305" height="108.553"/>
				</defs>
				<clipPath id="SVGID_2_">
					<use xlink:href="#SVGID_1_"  overflow="visible"/>
				</clipPath>
				<path clip-path="url(#SVGID_2_)" fill="#41A6F8" d="M102.098,106.598c3.131,10.696,6.344,21.372,9.344,32.105
					c0.904,3.237,1.174,7.412-3.205,7.594c-2.155,0.088-5.508-2.979-6.514-5.375c-3.676-8.754-6.59-17.825-10.164-27.819
					c-3.234,10.489-6.153,19.779-8.948,29.107c-1.094,3.65-2.701,6.705-7.14,5.622c-4.182-1.021-4.175-4.486-3.569-7.877
					c2.215-12.38,4.494-24.746,6.75-37.117c2.416,1.256,4.748,3.335,7.268,3.598C91.261,106.99,96.701,106.601,102.098,106.598"/>
			</g>
		</g>
		<g display="inline">
			<g>
				<defs>
					<rect id="SVGID_3_" x="62.679" y="39.5" width="57.305" height="108.553"/>
				</defs>
				<clipPath id="SVGID_4_">
					<use xlink:href="#SVGID_3_"  overflow="visible"/>
				</clipPath>
				<path clip-path="url(#SVGID_4_)" fill="#41A6F8" d="M81.126,75.981c-0.315-5.128,1.289-9.146,6.325-11.323
					c4.876-2.107,8.424,0.094,12.145,3.043c4.773,3.782,9.939,7.071,14.922,10.559c0.383,0.384,0.779,0.781,1.174,1.178
					c0.938,1.859,2.19,3.633,2.729,5.602c0.57,2.094,0.463,4.371,0.652,6.567c-2.36,0.114-5.188,1.116-6.99,0.167
					c-4.381-2.304-8.284-5.513-12.381-8.356c-1.992-0.01-4.044-0.333-5.967,0.031C87.243,84.675,81.458,85.028,81.126,75.981"/>
			</g>
		</g>
		<g display="inline">
			<g>
				<defs>
					<rect id="SVGID_5_" x="62.679" y="39.5" width="57.305" height="108.553"/>
				</defs>
				<clipPath id="SVGID_6_">
					<use xlink:href="#SVGID_5_"  overflow="visible"/>
				</clipPath>
				<path clip-path="url(#SVGID_6_)" fill="#41A6F8" d="M81.126,75.981c0.332,9.047,6.118,8.694,12.608,7.467
					c1.923-0.364,3.976-0.041,5.968-0.031c0.013,5.27,0.024,10.54,0.036,15.811c0.695,2.051,1.392,4.101,2.087,6.151
					c0.091,0.405,0.183,0.812,0.274,1.22c-5.398,0.003-10.837,0.394-16.179-0.162c-2.52-0.263-4.852-2.342-7.269-3.598
					C79.477,93.887,80.3,84.933,81.126,75.981"/>
			</g>
		</g>
		<g display="inline">
			<g>
				<defs>
					<rect id="SVGID_7_" x="62.679" y="39.5" width="57.305" height="108.553"/>
				</defs>
				<clipPath id="SVGID_8_">
					<use xlink:href="#SVGID_7_"  overflow="visible"/>
				</clipPath>
				<path clip-path="url(#SVGID_8_)" fill="#41A6F8" d="M77.81,77.639c-0.531,4.844-0.653,9.787-1.782,14.487
					c-0.488,2.029-2.861,4.73-4.727,5.047c-2.934,0.49-6.395,0.004-7.458-4.317c-2.03-8.253-1.546-16.298,2.586-23.609
					c1.01-1.787,5.104-2.555,7.699-2.406c1.224,0.07,2.615,3.3,3.273,5.312c0.541,1.654,0.111,3.625,0.111,5.455
					C77.612,77.617,77.711,77.628,77.81,77.639"/>
			</g>
		</g>
		<g display="inline">
			<g>
				<defs>
					<rect id="SVGID_9_" x="62.679" y="39.5" width="57.305" height="108.553"/>
				</defs>
				<clipPath id="SVGID_10_">
					<use xlink:href="#SVGID_9_"  overflow="visible"/>
				</clipPath>
				<path clip-path="url(#SVGID_10_)" fill="#41A6F8" d="M92.41,39.5c5.768-0.034,10.509,5.085,10.383,11.213
					c-0.105,5.182-4.96,9.663-10.534,9.724c-5.848,0.064-10.575-4.419-10.719-10.168C81.395,44.452,86.357,39.536,92.41,39.5"/>
			</g>
		</g>
		<g display="inline">
			<g>
				<defs>
					<rect id="SVGID_11_" x="62.679" y="39.5" width="57.305" height="108.553"/>
				</defs>
				<clipPath id="SVGID_12_">
					<use xlink:href="#SVGID_11_"  overflow="visible"/>
				</clipPath>
				<path clip-path="url(#SVGID_12_)" fill="#41A6F8" d="M118.834,89.686c0.863,18.961,1.003,37.906,1.15,56.853
					c-1.227,0.047-2.455,0.095-3.68,0.143c-0.816-19.001-1.633-38.001-2.451-57.001C115.516,89.68,117.175,89.683,118.834,89.686"/>
			</g>
		</g>
		<g display="inline">
			<g>
				<defs>
					<rect id="SVGID_13_" x="62.679" y="39.5" width="57.305" height="108.553"/>
				</defs>
				<clipPath id="SVGID_14_">
					<use xlink:href="#SVGID_13_"  overflow="visible"/>
				</clipPath>
				<path clip-path="url(#SVGID_14_)" fill="#41A6F8" d="M116.141,81.106c-0.396-0.396-0.791-0.794-1.174-1.177
					c-0.699-0.958-1.949-1.896-2.013-2.909c-0.126-2.077,0.171-4.256,0.772-6.249c0.16-0.529,2.791-1.043,3.032-0.694
					c1.162,1.675,2.261,3.57,2.681,5.538c0.444,2.086-0.572,8.106-0.572,11.092C117.307,85.865,116.238,81.995,116.141,81.106"/>
			</g>
		</g>
	</g>
	<g display="none">
		<g display="inline">
			<g>
				<defs>
					<rect id="SVGID_15_" x="56.318" y="41.751" width="73.682" height="103.739"/>
				</defs>
				<clipPath id="SVGID_16_">
					<use xlink:href="#SVGID_15_"  overflow="visible"/>
				</clipPath>
				<path clip-path="url(#SVGID_16_)" fill="#41A6F8" d="M113.912,122.815c5.34,7.509,10.561,14.851,16.088,22.625
					c-3.166,0-5.84,0.115-8.491-0.076c-0.72-0.053-1.521-0.918-2.032-1.601c-3.145-4.197-6.158-8.495-9.363-12.645
					c-0.602-0.778-1.867-1.461-2.834-1.474c-9.395-0.108-18.791-0.116-28.184,0.007c-1.028,0.014-2.359,0.786-3.01,1.625
					c-3.162,4.076-6.187,8.262-9.155,12.482c-0.872,1.24-1.795,1.808-3.33,1.722c-2.244-0.125-4.5-0.03-7.281-0.03
					c5.521-7.766,10.737-15.103,16.102-22.646c-3.628-1.002-6.728-2.659-8.425-5.803c-1.164-2.155-2.17-4.72-2.2-7.114
					C61.602,94.4,61.658,78.91,61.715,63.421c0.027-7.004,5.731-12.833,13.023-12.943c12.27-0.186,24.547-0.189,36.817-0.002
					c7.588,0.116,13.066,6.064,13.077,13.676c0.021,14.729,0.007,29.455,0.005,44.184
					C124.634,115.939,121.49,120.292,113.912,122.815 M93.169,63.624v0.017c-5.665,0-11.331-0.081-16.994,0.025
					c-4.432,0.083-6.829,2.622-6.904,7.027c-0.035,2.028-0.009,4.059-0.007,6.088c0.006,6.342,2.152,8.497,8.538,8.507
					c10.231,0.014,20.462,0.011,30.692-0.009c1.094-0.002,2.205-0.062,3.275-0.266c3.23-0.614,5.178-2.896,5.266-6.182
					c0.064-2.451,0.021-4.904,0.015-7.356c-0.015-5.484-2.337-7.813-7.899-7.847C103.823,63.599,98.497,63.624,93.169,63.624
					 M93.168,53.053c-2.022,0-4.044-0.048-6.064,0.011c-2.626,0.079-3.093,0.769-3.08,4.282c0.01,3.074,0.487,3.707,3.065,3.743
					c3.453,0.047,6.907,0.014,10.36,0.013c4.726,0,4.957-0.304,4.885-5.006c-0.034-2.182-1.066-3.047-3.102-3.043
					C97.211,53.056,95.189,53.053,93.168,53.053 M110.6,104.288c-3.341,0.041-6.152,2.735-6.102,5.845
					c0.053,3.104,2.959,5.761,6.25,5.715c3.341-0.047,6.141-2.742,6.094-5.863C116.794,106.851,113.939,104.245,110.6,104.288
					 M81.615,110.067c0.004-3.214-2.696-5.771-6.101-5.778c-3.326-0.007-6.172,2.646-6.177,5.759
					c-0.004,3.108,2.842,5.788,6.156,5.797C78.868,115.853,81.609,113.267,81.615,110.067"/>
			</g>
		</g>
		<g display="inline">
			<g>
				<defs>
					<rect id="SVGID_17_" x="56.318" y="41.751" width="73.682" height="103.739"/>
				</defs>
				<clipPath id="SVGID_18_">
					<use xlink:href="#SVGID_17_"  overflow="visible"/>
				</clipPath>
				<path clip-path="url(#SVGID_18_)" fill="#41A6F8" d="M98.217,41.757c2.096-0.057,3.9,1.465,4.023,3.394
					c0.13,2.021-1.676,3.781-3.883,3.788c-2.164,0.006-3.805-1.498-3.842-3.521C94.477,43.384,96.062,41.816,98.217,41.757"/>
			</g>
		</g>
		<g display="inline">
			<g>
				<defs>
					<rect id="SVGID_19_" x="56.318" y="41.751" width="73.682" height="103.739"/>
				</defs>
				<clipPath id="SVGID_20_">
					<use xlink:href="#SVGID_19_"  overflow="visible"/>
				</clipPath>
				<path clip-path="url(#SVGID_20_)" fill="#41A6F8" d="M87.883,41.752c2.155-0.041,3.84,1.443,3.917,3.451
					c0.077,2.039-1.476,3.636-3.627,3.729c-2.207,0.098-4.081-1.538-4.092-3.57C84.069,43.417,85.781,41.792,87.883,41.752"/>
			</g>
		</g>
	</g>
	<g>
		<g>
			<g>
				<defs>
					<rect id="SVGID_21_" x="42.213" y="60.916" width="100.359" height="67.25"/>
				</defs>
				<clipPath id="SVGID_22_">
					<use xlink:href="#SVGID_21_"  overflow="visible"/>
				</clipPath>
				<path clip-path="url(#SVGID_22_)" fill="#41A6F8" d="M91.757,60.916c6.045,0.395,11.423,0.833,16.741,2.066
					c9.652,2.239,18.389,6.378,26.296,12.271c2.529,1.886,4.795,4.124,7.183,6.2c0.809,0.702,0.768,1.411,0.037,2.146
					c-3.104,3.117-6.209,6.232-9.3,9.361c-0.719,0.728-1.341,0.685-2.058-0.019c-4.249-4.172-8.973-7.719-14.402-10.179
					c-3.014-1.366-6.161-2.478-9.322-3.47c-4.971-1.562-10.107-2.157-15.319-2.073c-3.909,0.062-7.736,0.65-11.558,1.492
					c-8.165,1.798-15.396,5.444-21.889,10.632c-1.399,1.117-2.708,2.354-4.007,3.587c-0.733,0.697-1.363,0.725-2.068,0.015
					c-3.119-3.134-6.241-6.267-9.372-9.389c-0.776-0.773-0.598-1.394,0.128-2.107c4.115-4.055,8.62-7.604,13.604-10.521
					c4.572-2.676,9.318-5.013,14.45-6.395c3.81-1.025,7.663-1.941,11.548-2.619C85.719,61.349,89.061,61.192,91.757,60.916"/>
			</g>
		</g>
		<g>
			<g>
				<defs>
					<rect id="SVGID_23_" x="42.213" y="60.916" width="100.359" height="67.25"/>
				</defs>
				<clipPath id="SVGID_24_">
					<use xlink:href="#SVGID_23_"  overflow="visible"/>
				</clipPath>
				<path clip-path="url(#SVGID_24_)" fill="#41A6F8" d="M92.451,84.3c6.229,0.332,12.164,1.493,17.926,3.842
					c5.76,2.35,10.725,5.786,15.221,10.008c0.85,0.799,0.543,1.466-0.035,2.052c-2.946,2.999-5.933,5.964-8.922,8.921
					c-0.926,0.914-1.57,0.927-2.453,0.019c-3.621-3.714-8.041-6.112-12.929-7.615c-4.108-1.263-8.399-1.622-12.642-1.044
					c-6.829,0.932-12.905,3.638-17.906,8.521c-1.125,1.097-1.414,1.104-2.547-0.01c-2.941-2.892-5.854-5.812-8.76-8.738
					c-0.842-0.849-0.809-1.628,0.318-2.521c2.851-2.254,5.673-4.571,8.699-6.574c4.09-2.706,8.685-4.413,13.458-5.425
					C85.349,85,88.923,84.76,92.451,84.3"/>
			</g>
		</g>
		<g>
			<g>
				<defs>
					<rect id="SVGID_25_" x="42.213" y="60.916" width="100.359" height="67.25"/>
				</defs>
				<clipPath id="SVGID_26_">
					<use xlink:href="#SVGID_25_"  overflow="visible"/>
				</clipPath>
				<path clip-path="url(#SVGID_26_)" fill="#41A6F8" d="M92.287,108.622c5.207-0.039,9.539,2.087,13.359,5.443
					c0.791,0.696,0.881,1.413,0.037,2.221c-3.897,3.735-7.754,7.513-11.652,11.246c-0.953,0.912-2.543,0.818-3.533-0.151
					c-3.821-3.751-7.608-7.534-11.454-11.259c-0.776-0.752-0.704-1.304,0.009-1.95C82.81,110.762,87.079,108.573,92.287,108.622"/>
			</g>
		</g>
	</g>
</g>
<g id="guides">
</g>
</svg>
