<?xml version="1.0" encoding="utf-8"?>
<!-- Generator: Adobe Illustrator 16.0.0, SVG Export Plug-In . SVG Version: 6.00 Build 0)  -->
<!DOCTYPE svg PUBLIC "-//W3C//DTD SVG 1.1//EN" "http://www.w3.org/Graphics/SVG/1.1/DTD/svg11.dtd">
<svg version="1.1" id="Layer_1" xmlns="http://www.w3.org/2000/svg" xmlns:xlink="http://www.w3.org/1999/xlink" x="0px" y="0px"
	 width="186px" height="266.439px" viewBox="0 0 186 266.439" enable-background="new 0 0 186 266.439" xml:space="preserve">
<path fill="#FF7300" d="M93,0C41.64,0,0,41.64,0,93c0,20.54,6.66,39.52,17.94,54.91c0,0,73.56,117.97,75.06,118.529
	c1-0.561,75.061-118.529,75.061-118.529C179.34,132.52,186,113.54,186,93C186,41.64,144,0,93,0z M93,160.502
	c-36.727,0-66.5-29.772-66.5-66.5s29.773-66.5,66.5-66.5c36.727,0,66.5,29.772,66.5,66.5C159.5,130.729,129.727,160.502,93,160.502z
	"/>
<path opacity="0.5" fill="#FFFFFF" enable-background="new    " d="M182.443,67.532C171.291,28.552,135.23,0,93,0
	C41.64,0,0,41.64,0,93c0,13.219,2.758,25.791,7.731,37.177 M32.349,121.312c-3.758-8.332-5.849-17.577-5.849-27.311
	c0-36.728,29.773-66.5,66.5-66.5c30.764,0,56.648,20.89,64.244,49.259"/>
<ellipse fill="#FFFFFF" cx="93" cy="93.72" rx="66.5" ry="67"/>
<g display="none">
	<g display="inline">
		<g>
			<defs>
				<rect id="SVGID_1_" x="56.318" y="41.751" width="73.682" height="103.739"/>
			</defs>
			<clipPath id="SVGID_2_">
				<use xlink:href="#SVGID_1_"  overflow="visible"/>
			</clipPath>
			<path clip-path="url(#SVGID_2_)" fill="#41A6F8" d="M113.912,122.815c5.34,7.509,10.561,14.851,16.088,22.625
				c-3.166,0-5.84,0.115-8.491-0.076c-0.72-0.053-1.521-0.918-2.032-1.601c-3.145-4.197-6.158-8.495-9.363-12.645
				c-0.602-0.778-1.867-1.461-2.834-1.474c-9.395-0.108-18.791-0.116-28.184,0.007c-1.028,0.014-2.359,0.786-3.01,1.625
				c-3.162,4.076-6.187,8.262-9.155,12.482c-0.872,1.24-1.795,1.808-3.33,1.722c-2.244-0.125-4.5-0.03-7.281-0.03
				c5.521-7.766,10.737-15.103,16.102-22.646c-3.628-1.002-6.728-2.659-8.425-5.803c-1.164-2.155-2.17-4.72-2.2-7.114
				C61.602,94.4,61.658,78.91,61.715,63.421c0.027-7.004,5.731-12.833,13.023-12.943c12.27-0.186,24.547-0.189,36.817-0.002
				c7.588,0.116,13.066,6.064,13.077,13.676c0.021,14.729,0.007,29.455,0.005,44.184
				C124.634,115.939,121.49,120.292,113.912,122.815 M93.169,63.624v0.017c-5.665,0-11.331-0.081-16.994,0.025
				c-4.432,0.083-6.829,2.622-6.904,7.027c-0.035,2.028-0.009,4.059-0.007,6.088c0.006,6.342,2.152,8.497,8.538,8.507
				c10.231,0.014,20.462,0.011,30.692-0.009c1.094-0.002,2.205-0.062,3.275-0.266c3.23-0.614,5.178-2.896,5.266-6.182
				c0.064-2.451,0.021-4.904,0.015-7.356c-0.015-5.484-2.337-7.813-7.899-7.847C103.823,63.599,98.497,63.624,93.169,63.624
				 M93.168,53.053c-2.022,0-4.044-0.048-6.064,0.011c-2.626,0.079-3.093,0.769-3.08,4.282c0.01,3.074,0.487,3.707,3.065,3.743
				c3.453,0.047,6.907,0.014,10.36,0.013c4.726,0,4.957-0.304,4.885-5.006c-0.034-2.182-1.066-3.047-3.102-3.043
				C97.211,53.056,95.189,53.053,93.168,53.053 M110.6,104.288c-3.341,0.041-6.152,2.735-6.102,5.845
				c0.053,3.104,2.959,5.761,6.25,5.715c3.341-0.047,6.141-2.742,6.094-5.863C116.794,106.851,113.939,104.245,110.6,104.288
				 M81.615,110.067c0.004-3.214-2.696-5.771-6.101-5.778c-3.326-0.007-6.172,2.646-6.177,5.759
				c-0.004,3.108,2.842,5.788,6.156,5.797C78.868,115.853,81.609,113.267,81.615,110.067"/>
		</g>
	</g>
	<g display="inline">
		<g>
			<defs>
				<rect id="SVGID_3_" x="56.318" y="41.751" width="73.682" height="103.739"/>
			</defs>
			<clipPath id="SVGID_4_">
				<use xlink:href="#SVGID_3_"  overflow="visible"/>
			</clipPath>
			<path clip-path="url(#SVGID_4_)" fill="#41A6F8" d="M98.217,41.757c2.096-0.057,3.9,1.465,4.023,3.394
				c0.13,2.021-1.676,3.781-3.883,3.788c-2.164,0.006-3.805-1.498-3.842-3.521C94.477,43.384,96.062,41.816,98.217,41.757"/>
		</g>
	</g>
	<g display="inline">
		<g>
			<defs>
				<rect id="SVGID_5_" x="56.318" y="41.751" width="73.682" height="103.739"/>
			</defs>
			<clipPath id="SVGID_6_">
				<use xlink:href="#SVGID_5_"  overflow="visible"/>
			</clipPath>
			<path clip-path="url(#SVGID_6_)" fill="#41A6F8" d="M87.883,41.752c2.155-0.041,3.84,1.443,3.917,3.451
				c0.077,2.039-1.476,3.636-3.627,3.729c-2.207,0.098-4.081-1.538-4.092-3.57C84.069,43.417,85.781,41.792,87.883,41.752"/>
		</g>
	</g>
</g>
<g>
	<g>
		<g>
			<defs>
				<rect id="SVGID_7_" x="55.16" y="43.246" width="75.611" height="102.191"/>
			</defs>
			<clipPath id="SVGID_8_">
				<use xlink:href="#SVGID_7_"  overflow="visible"/>
			</clipPath>
			<path clip-path="url(#SVGID_8_)" fill="#41A6F8" d="M69.508,84.974c0-1.314-0.161-2.653,0.027-3.939
				c1.45-9.968,6.832-16.956,16.355-20.271c4.316-1.503,9.024-2.478,13.514-0.61c2.41,1.004,4.461,2.852,6.709,4.265
				c2.111,1.325,4.141,2.889,6.425,3.806c5.802,2.33,11.351,1.035,16.66-1.825c0.388-0.21,0.78-0.413,1.177-0.607
				c0.05-0.025,0.13,0.012,0.396,0.043c-1.164,3.694-3.416,6.68-6.488,8.68c-3.088,2.008-6.879,2.725-10.481,1.637
				c-3.45-1.043-6.692-2.783-10.206-4.295c-1.121,3.169-2.121,6.662-3.566,9.961c-3.314,7.578-2.752,9.026,3.506,14.754
				c2.119,1.939,4.314,3.801,6.385,5.789c3.6,3.457,5.332,7.768,5.598,12.716c0.5,9.334,1.014,18.67,1.512,28.005
				c0.041,0.736,0.008,1.479-0.324,2.36c-1.352-2.706-2.658-5.437-4.066-8.113c-2.916-5.545-4.285-11.543-4.838-17.689
				c-0.512-5.688-4.127-8.889-8.354-11.847c-4.117-2.88-8.303-5.7-12.128-8.938c-1.273-1.076-1.927-3.304-2.168-5.099
				c-0.806-6.013,1.83-11.463,3.221-17.115c0.566-2.296,1.048-4.616,1.48-6.94c0.286-1.537-0.296-2.093-1.984-1.858
				c-6.772,0.938-10.857,5.259-13.964,10.847c-1.173,2.109-2.222,4.286-3.328,6.436C70.221,85.07,69.865,85.021,69.508,84.974"/>
		</g>
	</g>
	<g>
		<g>
			<defs>
				<rect id="SVGID_9_" x="55.16" y="43.246" width="75.611" height="102.191"/>
			</defs>
			<clipPath id="SVGID_10_">
				<use xlink:href="#SVGID_9_"  overflow="visible"/>
			</clipPath>
			<path clip-path="url(#SVGID_10_)" fill="#41A6F8" d="M55.16,104.122c10.177,1.228,18.037,5.877,25.554,12.285
				c1.27-6.07,2.398-11.473,3.628-17.354c3.007,2.688,5.799,5.134,8.51,7.67c0.305,0.286,0.329,1.137,0.167,1.619
				c-1.92,5.732-3.349,11.684-7.754,16.266c-2.159,2.245-5.206,2.86-7.797,1.141c-3.407-2.267-6.613-4.742-8.754-8.361
				c-0.438-0.739-1.209-1.288-1.859-1.889c-3.249-3.015-6.52-6.002-9.755-9.029C56.524,105.931,56.083,105.249,55.16,104.122"/>
		</g>
	</g>
	<g>
		<g>
			<defs>
				<rect id="SVGID_11_" x="55.16" y="43.246" width="75.611" height="102.191"/>
			</defs>
			<clipPath id="SVGID_12_">
				<use xlink:href="#SVGID_11_"  overflow="visible"/>
			</clipPath>
			<path clip-path="url(#SVGID_12_)" fill="#41A6F8" d="M107.876,49.552c-0.03,2.99-1.366,5.332-3.409,7.284
				c-1.748,1.67-4.087,1.42-5.676-0.443c-2.646-3.104-1.787-9.843,1.561-12.22c2.502-1.779,5.594-0.93,6.736,1.95
				C107.516,47.202,107.623,48.406,107.876,49.552"/>
		</g>
	</g>
</g>
</svg>
